<svg width="35" height="35" viewBox="0 0 30 19" fill="none" xmlns="http://www.w3.org/2000/svg">
    <path d="M15.31 2.35625C14.49 5.72375 14.5425 5.54375 13.7988 8.62375C13.7825 8.9075 13.5475 9.13125 13.2613 9.13125C13.23 9.13125 13.1988 9.12875 13.1688 9.12375H13.1725H12.3288C12.3038 9.12875 12.2738 9.13125 12.245 9.13125C11.9913 9.13125 11.7825 8.9425 11.75 8.69875V8.69625C11.0288 6.38875 10.0625 3.18375 9.41253 1.04C9.17253 0.248752 9.33003 0.267502 9.95753 0.283752C10.175 0.290002 10.385 0.283752 10.6013 0.283752C10.6163 0.282502 10.6338 0.281252 10.6525 0.281252C10.8975 0.281252 11.1 0.462502 11.1338 0.697502V0.700002C11.345 1.45625 11.485 2.03625 12.6913 6.8C12.7138 6.89375 12.7438 6.9825 12.7738 7.06875H12.8375C12.8663 6.95125 12.9013 6.84125 12.9313 6.7225C13.3879 4.795 13.8429 2.86584 14.2963 0.935002C14.4375 0.335002 14.6888 0.278752 15.2963 0.278752H15.7413C16.1413 0.285002 16.2688 0.366253 16.3688 0.765003C16.72 2.13625 17.7463 6.7275 17.9325 7.2325C18.2325 6.16 17.8275 7.695 19.6025 0.847503C19.725 0.373753 19.8425 0.280003 20.3238 0.280003H21.0625C21.3788 0.286253 21.4725 0.385002 21.3963 0.696252C21.255 1.25375 21.2263 1.27625 18.9775 8.48125C18.795 9.06125 18.7313 9.11375 18.1225 9.11375H17.5013C17.0738 9.11375 16.9625 9.0375 16.8575 8.62125C16.605 7.6725 15.4925 3.015 15.31 2.35875V2.35625ZM7.35502 8.87C7.44002 9.04375 7.61503 9.16125 7.81753 9.16125C7.96003 9.16125 8.08753 9.10375 8.18128 9.01L8.55003 8.76375C8.95003 8.5 8.97752 8.395 8.76127 7.9725C8.52877 7.53 8.39127 7.00625 8.39127 6.45C8.39127 6.43125 8.39127 6.4125 8.39127 6.39375V6.39625C8.39127 6.21375 8.42628 3.13375 8.33878 2.48375C8.26128 1.39625 7.50752 0.503752 6.50003 0.220002L6.48253 0.216252C6.04128 0.0937524 5.53503 0.0237521 5.01128 0.0237521C4.85378 0.0237521 4.69628 0.0300025 4.54253 0.0425025L4.56253 0.0412526C3.64253 0.0775026 2.78753 0.321252 2.03128 0.725002L2.06253 0.710002C1.94878 0.771252 1.86378 0.872502 1.82378 0.993752L1.82253 0.997502C1.79003 1.145 1.77128 1.315 1.77128 1.48875C1.77128 1.565 1.77503 1.64125 1.78128 1.71625L1.78003 1.70625C1.81503 2.0525 1.93253 2.11625 2.26003 2.00625C2.56003 1.90625 2.84628 1.77875 3.14503 1.69C3.57628 1.53 4.07378 1.4375 4.59378 1.4375C4.99753 1.4375 5.38753 1.49375 5.75753 1.5975L5.72753 1.59C6.12378 1.70875 6.43253 2.0075 6.56253 2.38875L6.56503 2.3975C6.66128 2.72 6.71753 3.09 6.71753 3.47375C6.71753 3.59125 6.71253 3.70875 6.70253 3.82375L6.70378 3.80875C6.70378 4.13125 6.69753 4.13125 6.38128 4.0725C5.84378 3.93875 5.22753 3.86125 4.59253 3.86125C4.35878 3.86125 4.12628 3.87125 3.89753 3.8925L3.92753 3.89C3.02003 3.95625 2.22753 4.3975 1.69378 5.05625L1.68878 5.0625C1.36378 5.5125 1.16878 6.07625 1.16878 6.685C1.16878 6.93125 1.20003 7.16875 1.26003 7.39625L1.25628 7.37625C1.38628 8.22875 1.99128 8.91125 2.78753 9.15375L2.80253 9.1575C3.15253 9.2825 3.55628 9.355 3.97753 9.355C4.81128 9.355 5.58003 9.07125 6.19003 8.595L6.18253 8.60125C6.40503 8.4375 6.60503 8.23875 6.83253 8.04375C7.01503 8.33625 7.17253 8.61125 7.35378 8.86375L7.35502 8.87ZM6.45503 5.26125H6.46128C6.60003 5.26125 6.71253 5.37375 6.71253 5.5125C6.71253 5.53 6.71128 5.54625 6.70753 5.56375V5.5625C6.69503 5.785 6.71378 6.0075 6.69003 6.23C6.62753 6.88375 6.21878 7.42875 5.65253 7.685L5.64128 7.69C5.27378 7.8825 4.84003 7.99625 4.37878 7.99625C4.28503 7.99625 4.19253 7.99125 4.10128 7.9825L4.11253 7.98375C3.45128 7.945 2.93003 7.4 2.93003 6.7325C2.93003 6.63 2.94253 6.53 2.96628 6.43375L2.96503 6.4425C2.99753 5.7575 3.54003 5.20875 4.22003 5.16625H4.22378C4.48628 5.12375 4.78878 5.1 5.09628 5.1C5.58128 5.1 6.05378 5.16 6.50378 5.2725L6.46378 5.26375L6.45503 5.26125ZM26.8875 9.075C27.9188 8.72875 28.6475 7.77125 28.6475 6.64375C28.6475 6.4675 28.63 6.295 28.5963 6.12875L28.5988 6.145C28.465 5.32875 27.8938 4.67375 27.1375 4.42125L27.1225 4.41625C25.9825 4.05875 25.0488 3.6975 24.1438 3.285L24.305 3.35125C24.0438 3.22 23.8663 2.9575 23.86 2.6525V2.65125C23.8525 2.605 23.8488 2.5525 23.8488 2.49875C23.8488 1.975 24.2463 1.545 24.7563 1.4925H24.76C25.0238 1.43 25.3263 1.395 25.6375 1.395C25.9088 1.395 26.175 1.4225 26.4313 1.47375L26.4063 1.47C26.8338 1.5525 27.2438 1.71625 27.66 1.83875C27.8238 1.89125 28.0063 1.96125 28.1175 1.745C28.175 1.62375 28.2088 1.48125 28.2088 1.3325C28.2088 0.960003 28.0013 0.636252 27.695 0.471252L27.69 0.468753C27.0725 0.173753 26.3475 0.00250244 25.5825 0.00250244C24.9 0.00250244 24.25 0.140003 23.6575 0.387503L23.69 0.375002C22.7838 0.735002 22.155 1.605 22.155 2.62125C22.155 3.595 22.7325 4.435 23.5638 4.815L23.5788 4.82125C24.03 5.03875 24.5213 5.1675 24.9963 5.3425C25.4713 5.5175 25.945 5.6825 26.4088 5.875C26.7288 6.0525 26.9425 6.38875 26.9425 6.775C26.9425 7.1325 26.76 7.44625 26.4825 7.63L26.4788 7.6325C24.8563 8.5325 22.6788 7.49125 22.425 7.41C22.2325 7.34625 22.115 7.4225 22.0563 7.6275C22.0088 7.73875 21.9813 7.86875 21.9813 8.005C21.9813 8.46625 22.3 8.85375 22.73 8.95625L22.7363 8.9575C23.4 9.22375 24.1688 9.3775 24.9738 9.3775C25.6563 9.3775 26.3138 9.26625 26.9275 9.06125L26.8838 9.07375L26.8875 9.075ZM17.345 18.6062C20.4675 18.2712 23.3025 17.2913 25.7988 15.8013L25.7038 15.8538C26.1725 15.5788 26.6113 15.2538 27.0563 14.9338C27.4838 14.6338 27.2438 13.8563 26.3938 14.2188C23.4638 15.505 20.0613 16.3275 16.4875 16.495L16.4238 16.4975C16.0488 16.5162 15.61 16.5263 15.1688 16.5263C13.7288 16.5263 12.3138 16.4163 10.9325 16.2038L11.0863 16.2237C7.19003 15.6625 3.68128 14.4013 0.550026 12.565L0.686276 12.6388C0.576276 12.565 0.450026 12.505 0.315026 12.465L0.305026 12.4625C0.0175261 12.3988 -0.146224 12.7375 0.163776 13.03C4.00003 16.5775 9.15003 18.7525 14.8088 18.7525H14.8263H14.825C15.6688 18.705 16.5125 18.7 17.3438 18.6062H17.345ZM27.5788 13.2063C28.4463 13.2538 28.715 13.5525 28.4988 14.3888C28.2763 15.2563 27.9538 16.1 27.685 16.955C27.6325 17.125 27.4388 17.3238 27.6375 17.4713C27.855 17.6238 28.0188 17.4125 28.165 17.2787C28.7338 16.7375 29.1813 16.0763 29.47 15.335L29.4825 15.2988C29.805 14.5938 29.9925 13.7688 29.9925 12.9C29.9925 12.88 29.9925 12.8613 29.9925 12.8413V12.8438C29.98 12.4813 29.8875 12.3275 29.535 12.2288C29.255 12.1425 28.9263 12.0763 28.5888 12.0438L28.5688 12.0425C28.34 12.0138 28.0763 11.9975 27.8075 11.9975C26.7625 11.9975 25.775 12.2438 24.8988 12.68L24.9363 12.6625C24.7425 12.7675 24.575 12.8825 24.4213 13.0125L24.4263 13.0088C24.3625 13.0613 24.2388 13.3188 24.5675 13.3663C24.5975 13.3688 24.6338 13.37 24.6688 13.37C24.755 13.37 24.84 13.3625 24.9213 13.3475L24.9125 13.3488C25.57 13.255 26.33 13.2013 27.1013 13.2013C27.2688 13.2013 27.435 13.2038 27.6013 13.2088H27.5775L27.5788 13.2063Z" fill="white"/>
</svg>
