<svg width="30" height="31" viewBox="0 0 30 31" fill="none" xmlns="http://www.w3.org/2000/svg">
    <path d="M6.856 26.7304C6.05928 26.5019 5.48608 25.8056 5.41486 24.9798L3.61481 4.10936C3.51407 2.94131 4.43503 1.9375 5.60741 1.9375H24.3923C25.5648 1.9375 26.4858 2.94148 26.3849 4.10961L24.5825 24.9757C24.5112 25.8016 23.9377 26.4979 23.1408 26.7262L15.5371 28.9046C15.1769 29.0078 14.795 29.0077 14.4348 28.9044L6.856 26.7304Z" fill="#1572B6"/>
    <path d="M15 26.9874L22.6594 24.7932L24.4613 3.93408H15V26.9874Z" fill="#33A9DC"/>
    <path d="M15 12.7788H18.8344L19.0987 9.71267H15V6.71826H15.0103H22.2656L22.1963 7.52136L21.4847 15.7732H15V12.7788Z" fill="white"/>
    <path d="M15.0178 20.5549L15.0047 20.5588L11.7778 19.6579L11.5715 17.2699H10.0031H8.66248L9.06841 21.9712L15.0037 23.6743L15.0178 23.6704V20.5549Z" fill="#EBEBEB"/>
    <path d="M18.5878 15.6463L18.2391 19.656L15.0075 20.5569V23.6724L20.9475 21.9713L20.9916 21.4656L21.495 15.6463H18.5878Z" fill="white"/>
    <path d="M15.0103 6.71826V8.57826V9.70492V9.71267H8.02028H8.01091L7.95278 9.03939L7.8206 7.52136L7.75122 6.71826H15.0103Z" fill="#EBEBEB"/>
    <path d="M15 12.7788V14.6388V15.7655V15.7732H11.8228H11.8134L11.7553 15.0999L11.6241 13.5819L11.5547 12.7788H15Z" fill="#EBEBEB"/>
</svg>
