<svg width="30" height="30" viewBox="0 0 30 30" fill="none" xmlns="http://www.w3.org/2000/svg">
    <path d="M11.25 5.625V8.4375H5.625V11.25H2.8125V14.0625H1.93359C1.64429 14.0698 1.37329 14.209 1.20117 14.4434C1.20117 14.4434 1.12061 14.5422 1.08398 14.6191C1.04736 14.696 1.02173 14.8132 0.996094 14.9121C0.941162 15.1135 0.908203 15.3406 0.908203 15.6738C0.908203 16.3184 0.985107 17.0325 1.17187 17.7539C1.09131 17.7722 1.00342 17.7942 0.9375 17.8125H1.20117C1.39526 18.5376 1.69189 19.2664 2.10937 19.9805C2.12036 19.9988 2.12769 20.0208 2.13867 20.0391C2.13867 20.05 2.13867 20.0574 2.13867 20.0684C2.1936 20.2954 2.3291 20.4932 2.51953 20.625C2.53052 20.636 2.53784 20.6433 2.54883 20.6543C2.7063 20.874 2.86377 21.0901 3.04687 21.2988C4.5813 23.064 7.05688 24.4043 10.5762 24.4043C15.9814 24.4043 20.6616 22.1777 23.4668 17.8125H28.2129C27.6196 17.6624 26.3306 17.4463 26.543 16.6699C25.8874 17.428 24.6753 17.5891 23.6719 17.4609C24.0015 16.9153 24.3091 16.3403 24.5801 15.7324C26.1328 15.6409 27.312 15.1172 27.9785 14.4727C28.7402 13.7366 28.9746 12.8906 28.9746 12.8906C29.0735 12.5391 28.96 12.1619 28.6816 11.9238C28.6816 11.9238 27.2644 10.9314 25.2246 11.1328C24.5251 9.26514 23.0566 8.34961 23.0566 8.34961C22.8625 8.23608 22.6355 8.19214 22.4121 8.23242C22.262 8.26538 22.1191 8.33496 22.002 8.4375C22.002 8.4375 21.5735 8.81836 21.2402 9.43359C20.907 10.0488 20.6067 10.9827 20.7129 12.1582C20.7532 12.5903 21.0168 12.9712 21.1816 13.3887C21.0645 13.4619 20.9546 13.5461 20.8008 13.623C20.3284 13.8538 19.6838 14.0625 18.8379 14.0625H18.75V11.25H15.9375V5.625H11.25ZM13.125 7.5H14.0625V8.4375H13.125V7.5ZM7.5 10.3125H8.4375V11.25H7.5V10.3125ZM10.3125 10.3125H11.25V11.25H10.3125V10.3125ZM13.125 10.3125H14.0625V11.25H13.125V10.3125ZM22.8223 10.6055C23.1592 10.9863 23.5254 11.5247 23.6719 12.3047C23.7195 12.5647 23.8733 12.7881 24.0967 12.9272C24.3201 13.0664 24.5911 13.1067 24.8437 13.0371C25.6934 12.8064 26.3123 12.8796 26.748 13.0078C26.6968 13.0701 26.7297 13.0591 26.6602 13.125C26.2317 13.5388 25.5139 14.0002 24.0234 13.9453C23.6279 13.9307 23.2654 14.165 23.1152 14.5312C22.6941 15.575 22.2034 16.5125 21.6211 17.3438C20.2368 17.8821 17.157 17.4866 16.9043 16.7871C15.9888 17.8601 13.1653 17.8601 12.2461 16.7871C11.9495 17.6111 7.67578 17.9919 6.94336 16.9336C6.35376 17.4829 4.20776 17.8491 2.98828 17.0215C2.91138 16.6443 2.85645 16.2744 2.8418 15.9375H18.8379C20.0061 15.9375 20.9473 15.6226 21.6211 15.293C21.958 15.1282 22.24 14.9634 22.4414 14.8242C22.6428 14.6851 22.8113 14.5605 22.7637 14.5898C22.9944 14.4543 23.1555 14.2236 23.2031 13.96C23.2544 13.6963 23.1921 13.4253 23.0273 13.2129C22.7783 12.887 22.6355 12.4878 22.5879 11.9824C22.5293 11.3232 22.6794 10.9424 22.8223 10.6055ZM4.6875 13.125H5.625V14.0625H4.6875V13.125ZM7.5 13.125H8.4375V14.0625H7.5V13.125ZM10.3125 13.125H11.25V14.0625H10.3125V13.125ZM13.125 13.125H14.0625V14.0625H13.125V13.125ZM15.9375 13.125H16.875V14.0625H15.9375V13.125ZM3.19336 17.8125H21.2695C18.8013 21.0059 15.0696 22.5293 10.5762 22.5293C8.22143 22.5293 6.56982 21.8958 5.39062 20.9766C7.38281 20.907 8.81836 20.3906 8.81836 20.3906C9.32739 20.2917 9.66431 19.801 9.56543 19.292C9.46655 18.783 8.97583 18.446 8.4668 18.5449C8.42651 18.5522 8.38623 18.5632 8.34961 18.5742C8.29834 18.5889 8.25073 18.6108 8.20312 18.6328C8.20312 18.6328 6.14868 19.3066 3.7207 19.0137C3.49731 18.6145 3.3252 18.219 3.19336 17.8125ZM10.0488 17.9883C9.74854 17.9883 9.49219 18.241 9.49219 18.5449C9.49219 18.8452 9.74854 19.1016 10.0488 19.1016C10.3491 19.1016 10.5762 18.8452 10.5762 18.5449C10.5762 18.4717 10.5725 18.4058 10.5469 18.3398C10.5103 18.4094 10.426 18.457 10.3418 18.457C10.2173 18.457 10.1367 18.3472 10.1367 18.2227C10.1367 18.1384 10.1587 18.0835 10.2246 18.0469C10.1624 18.0212 10.1184 17.9883 10.0488 17.9883Z" fill="white"/>
</svg>
