<svg width="70" height="18" viewBox="0 0 69 15" fill="none" xmlns="http://www.w3.org/2000/svg">
<path d="M0.00800002 11V0.695999H7.192V2.056H1.752V5.176H6.6V6.52H1.752V9.656H7.192V11H0.00800002ZM7.87063 11L10.7666 7.144L7.98263 3.416H9.85463L11.7106 5.944L13.5666 3.416H15.4386L12.6706 7.144L15.5506 11H13.6626L11.7106 8.36L9.75863 11H7.87063ZM17.0393 14.456V3.416H18.5433L18.6393 4.168C18.9806 3.85867 19.3539 3.62933 19.7593 3.48C20.1646 3.33067 20.6446 3.256 21.1993 3.256C22.2873 3.256 23.1353 3.55467 23.7433 4.152C24.3513 4.73867 24.6553 5.71467 24.6553 7.08C24.6553 8.44533 24.3406 9.46933 23.7113 10.152C23.0819 10.824 22.2233 11.16 21.1353 11.16C20.2179 11.16 19.4339 10.9467 18.7833 10.52V14.456H17.0393ZM20.6873 9.848C22.1593 9.848 22.8953 8.92 22.8953 7.064C22.8953 6.168 22.7299 5.53333 22.3993 5.16C22.0686 4.776 21.5139 4.584 20.7352 4.584C19.9566 4.584 19.3059 4.85067 18.7833 5.384V9.176C19.0286 9.37867 19.3006 9.544 19.5993 9.672C19.9086 9.78933 20.2713 9.848 20.6873 9.848ZM26.3518 11V3.416H27.9518L28.0478 4.296C28.4104 4.06133 28.8424 3.848 29.3438 3.656C29.8451 3.464 30.3411 3.33067 30.8318 3.256V4.584C30.5331 4.63733 30.2078 4.71733 29.8558 4.824C29.5144 4.92 29.1891 5.032 28.8798 5.16C28.5704 5.27733 28.3091 5.4 28.0958 5.528V11H26.3518ZM35.6293 11.16C34.3066 11.16 33.2826 10.8347 32.5573 10.184C31.8319 9.53333 31.4693 8.536 31.4693 7.192C31.4693 5.976 31.7786 5.016 32.3973 4.312C33.0159 3.608 33.9546 3.256 35.2133 3.256C36.3653 3.256 37.2293 3.56 37.8053 4.168C38.3919 4.76533 38.6853 5.53867 38.6853 6.488V7.896H33.1332C33.2186 8.632 33.4853 9.13867 33.9333 9.416C34.3813 9.69333 35.0639 9.832 35.9813 9.832C36.3653 9.832 36.7599 9.79467 37.1653 9.72C37.5706 9.64533 37.9226 9.54933 38.2213 9.432V10.712C37.8799 10.8613 37.4853 10.9733 37.0373 11.048C36.5999 11.1227 36.1306 11.16 35.6293 11.16ZM33.1332 6.76H37.1493V6.232C37.1493 5.70933 37.0053 5.304 36.7173 5.016C36.4293 4.71733 35.9439 4.568 35.2613 4.568C34.4506 4.568 33.8906 4.744 33.5813 5.096C33.2826 5.448 33.1332 6.00267 33.1332 6.76ZM42.8329 11.16C42.3102 11.16 41.8089 11.1227 41.3289 11.048C40.8595 10.9733 40.4702 10.8827 40.1609 10.776V9.304C40.5235 9.44267 40.9235 9.54933 41.3609 9.624C41.7982 9.69867 42.2142 9.736 42.6089 9.736C43.2062 9.736 43.6329 9.68267 43.8889 9.576C44.1449 9.46933 44.2729 9.26133 44.2729 8.952C44.2729 8.728 44.1929 8.552 44.0329 8.424C43.8835 8.296 43.6542 8.17867 43.3449 8.072C43.0462 7.96533 42.6622 7.83733 42.1929 7.688C41.7449 7.53867 41.3555 7.37867 41.0249 7.208C40.6942 7.02667 40.4382 6.79733 40.2569 6.52C40.0755 6.24267 39.9849 5.88 39.9849 5.432C39.9849 4.73867 40.2355 4.20533 40.7369 3.832C41.2382 3.448 42.0435 3.256 43.1529 3.256C43.5902 3.256 44.0062 3.288 44.4009 3.352C44.7955 3.416 45.1315 3.496 45.4089 3.592V5.048C45.1102 4.93067 44.7795 4.84 44.4169 4.776C44.0649 4.712 43.7342 4.68 43.4249 4.68C42.8702 4.68 42.4489 4.728 42.1609 4.824C41.8835 4.92 41.7449 5.112 41.7449 5.4C41.7449 5.69867 41.8889 5.912 42.1769 6.04C42.4755 6.15733 42.9502 6.32267 43.6009 6.536C44.1982 6.71733 44.6729 6.90933 45.0249 7.112C45.3769 7.31467 45.6275 7.56 45.7769 7.848C45.9369 8.12533 46.0169 8.488 46.0169 8.936C46.0169 9.68267 45.7449 10.2427 45.2009 10.616C44.6569 10.9787 43.8675 11.16 42.8329 11.16ZM49.8485 11.16C49.3258 11.16 48.8245 11.1227 48.3445 11.048C47.8752 10.9733 47.4858 10.8827 47.1765 10.776V9.304C47.5392 9.44267 47.9392 9.54933 48.3765 9.624C48.8138 9.69867 49.2298 9.736 49.6245 9.736C50.2218 9.736 50.6485 9.68267 50.9045 9.576C51.1605 9.46933 51.2885 9.26133 51.2885 8.952C51.2885 8.728 51.2085 8.552 51.0485 8.424C50.8992 8.296 50.6698 8.17867 50.3605 8.072C50.0618 7.96533 49.6778 7.83733 49.2085 7.688C48.7605 7.53867 48.3712 7.37867 48.0405 7.208C47.7098 7.02667 47.4538 6.79733 47.2725 6.52C47.0912 6.24267 47.0005 5.88 47.0005 5.432C47.0005 4.73867 47.2512 4.20533 47.7525 3.832C48.2538 3.448 49.0592 3.256 50.1685 3.256C50.6058 3.256 51.0218 3.288 51.4165 3.352C51.8112 3.416 52.1472 3.496 52.4245 3.592V5.048C52.1258 4.93067 51.7952 4.84 51.4325 4.776C51.0805 4.712 50.7498 4.68 50.4405 4.68C49.8858 4.68 49.4645 4.728 49.1765 4.824C48.8992 4.92 48.7605 5.112 48.7605 5.4C48.7605 5.69867 48.9045 5.912 49.1925 6.04C49.4912 6.15733 49.9658 6.32267 50.6165 6.536C51.2138 6.71733 51.6885 6.90933 52.0405 7.112C52.3925 7.31467 52.6432 7.56 52.7925 7.848C52.9525 8.12533 53.0325 8.488 53.0325 8.936C53.0325 9.68267 52.7605 10.2427 52.2165 10.616C51.6725 10.9787 50.8832 11.16 49.8485 11.16ZM54.4224 11V9.64H55.8944V11H54.4224ZM58.6098 1.832V0.391999H60.5138V1.832H58.6098ZM58.0498 14.744C57.4311 14.744 56.9031 14.6587 56.4657 14.488V13.224C56.6471 13.2773 56.8178 13.3147 56.9778 13.336C57.1484 13.368 57.3031 13.384 57.4418 13.384C57.9431 13.384 58.2898 13.2933 58.4818 13.112C58.6844 12.9307 58.7858 12.632 58.7858 12.216V4.744H57.6338L57.7938 3.416H60.5138V12.376C60.5138 13.0907 60.3058 13.6613 59.8898 14.088C59.4844 14.5253 58.8711 14.744 58.0498 14.744ZM65.0516 11.16C64.529 11.16 64.0276 11.1227 63.5476 11.048C63.0783 10.9733 62.689 10.8827 62.3796 10.776V9.304C62.7423 9.44267 63.1423 9.54933 63.5796 9.624C64.017 9.69867 64.433 9.736 64.8276 9.736C65.425 9.736 65.8516 9.68267 66.1076 9.576C66.3636 9.46933 66.4916 9.26133 66.4916 8.952C66.4916 8.728 66.4116 8.552 66.2516 8.424C66.1023 8.296 65.873 8.17867 65.5636 8.072C65.265 7.96533 64.881 7.83733 64.4116 7.688C63.9636 7.53867 63.5743 7.37867 63.2436 7.208C62.913 7.02667 62.657 6.79733 62.4756 6.52C62.2943 6.24267 62.2036 5.88 62.2036 5.432C62.2036 4.73867 62.4543 4.20533 62.9556 3.832C63.457 3.448 64.2623 3.256 65.3716 3.256C65.809 3.256 66.225 3.288 66.6196 3.352C67.0143 3.416 67.3503 3.496 67.6276 3.592V5.048C67.329 4.93067 66.9983 4.84 66.6356 4.776C66.2836 4.712 65.953 4.68 65.6436 4.68C65.089 4.68 64.6676 4.728 64.3796 4.824C64.1023 4.92 63.9636 5.112 63.9636 5.4C63.9636 5.69867 64.1076 5.912 64.3956 6.04C64.6943 6.15733 65.169 6.32267 65.8196 6.536C66.417 6.71733 66.8916 6.90933 67.2436 7.112C67.5956 7.31467 67.8463 7.56 67.9956 7.848C68.1556 8.12533 68.2356 8.488 68.2356 8.936C68.2356 9.68267 67.9636 10.2427 67.4196 10.616C66.8756 10.9787 66.0863 11.16 65.0516 11.16Z" fill="white"/>
<path d="M0.00800002 11H-0.492V11.5H0.00800002V11ZM0.00800002 0.695999V0.195999H-0.492V0.695999H0.00800002ZM7.192 0.695999H7.692V0.195999H7.192V0.695999ZM7.192 2.056V2.556H7.692V2.056H7.192ZM1.752 2.056V1.556H1.252V2.056H1.752ZM1.752 5.176H1.252V5.676H1.752V5.176ZM6.6 5.176H7.1V4.676H6.6V5.176ZM6.6 6.52V7.02H7.1V6.52H6.6ZM1.752 6.52V6.02H1.252V6.52H1.752ZM1.752 9.656H1.252V10.156H1.752V9.656ZM7.192 9.656H7.692V9.156H7.192V9.656ZM7.192 11V11.5H7.692V11H7.192ZM0.508 11V0.695999H-0.492V11H0.508ZM0.00800002 1.196H7.192V0.195999H0.00800002V1.196ZM6.692 0.695999V2.056H7.692V0.695999H6.692ZM7.192 1.556H1.752V2.556H7.192V1.556ZM1.252 2.056V5.176H2.252V2.056H1.252ZM1.752 5.676H6.6V4.676H1.752V5.676ZM6.1 5.176V6.52H7.1V5.176H6.1ZM6.6 6.02H1.752V7.02H6.6V6.02ZM1.252 6.52V9.656H2.252V6.52H1.252ZM1.752 10.156H7.192V9.156H1.752V10.156ZM6.692 9.656V11H7.692V9.656H6.692ZM7.192 10.5H0.00800002V11.5H7.192V10.5ZM7.87063 11L7.47082 10.6997L6.8698 11.5H7.87063V11ZM10.7666 7.144L11.1664 7.44427L11.3913 7.14485L11.1672 6.84483L10.7666 7.144ZM7.98263 3.416V2.916H6.9852L7.58201 3.71517L7.98263 3.416ZM9.85463 3.416L10.2577 3.1201L10.1078 2.916H9.85463V3.416ZM11.7106 5.944L11.3076 6.2399L11.7106 6.78887L12.1137 6.2399L11.7106 5.944ZM13.5666 3.416V2.916H13.3134L13.1636 3.1201L13.5666 3.416ZM15.4386 3.416L15.8401 3.71407L16.4326 2.916H15.4386V3.416ZM12.6706 7.144L12.2692 6.84593L12.0472 7.14488L12.27 7.4432L12.6706 7.144ZM15.5506 11V11.5H16.5481L15.9512 10.7008L15.5506 11ZM13.6626 11L13.2606 11.2973L13.4105 11.5H13.6626V11ZM11.7106 8.36L12.1127 8.06274L11.7106 7.519L11.3086 8.06274L11.7106 8.36ZM9.75863 11V11.5H10.0108L10.1607 11.2973L9.75863 11ZM8.27043 11.3003L11.1664 7.44427L10.3668 6.84373L7.47082 10.6997L8.27043 11.3003ZM11.1672 6.84483L8.38324 3.11683L7.58201 3.71517L10.366 7.44317L11.1672 6.84483ZM7.98263 3.916H9.85463V2.916H7.98263V3.916ZM9.45158 3.7119L11.3076 6.2399L12.1137 5.6481L10.2577 3.1201L9.45158 3.7119ZM12.1137 6.2399L13.9697 3.7119L13.1636 3.1201L11.3076 5.6481L12.1137 6.2399ZM13.5666 3.916H15.4386V2.916H13.5666V3.916ZM15.0372 3.11793L12.2692 6.84593L13.0721 7.44207L15.8401 3.71407L15.0372 3.11793ZM12.27 7.4432L15.15 11.2992L15.9512 10.7008L13.0712 6.8448L12.27 7.4432ZM15.5506 10.5H13.6626V11.5H15.5506V10.5ZM14.0647 10.7027L12.1127 8.06274L11.3086 8.65726L13.2606 11.2973L14.0647 10.7027ZM11.3086 8.06274L9.35659 10.7027L10.1607 11.2973L12.1127 8.65726L11.3086 8.06274ZM9.75863 10.5H7.87063V11.5H9.75863V10.5ZM17.0393 14.456H16.5393V14.956H17.0393V14.456ZM17.0393 3.416V2.916H16.5393V3.416H17.0393ZM18.5433 3.416L19.0392 3.35268L18.9835 2.916H18.5433V3.416ZM18.6393 4.168L18.1433 4.23132L18.2647 5.18224L18.975 4.53849L18.6393 4.168ZM19.7593 3.48L19.5864 3.01083L19.5864 3.01083L19.7593 3.48ZM23.7433 4.152L23.3928 4.50868L23.3961 4.51181L23.7433 4.152ZM23.7113 10.152L24.0762 10.4938L24.0789 10.4909L23.7113 10.152ZM18.7833 10.52L19.0574 10.1019L18.2833 9.59422V10.52H18.7833ZM18.7833 14.456V14.956H19.2833V14.456H18.7833ZM22.3993 5.16L22.0203 5.48629L22.025 5.49152L22.3993 5.16ZM18.7833 5.384L18.4261 5.03404L18.2833 5.17985V5.384H18.7833ZM18.7833 9.176H18.2833V9.4115L18.4648 9.56148L18.7833 9.176ZM19.5993 9.672L19.4023 10.1316L19.412 10.1357L19.4219 10.1395L19.5993 9.672ZM17.5393 14.456V3.416H16.5393V14.456H17.5393ZM17.0393 3.916H18.5433V2.916H17.0393V3.916ZM18.0473 3.47932L18.1433 4.23132L19.1352 4.10468L19.0392 3.35268L18.0473 3.47932ZM18.975 4.53849C19.2721 4.2693 19.5908 4.07491 19.9321 3.94917L19.5864 3.01083C19.117 3.18375 18.6891 3.44803 18.3035 3.79751L18.975 4.53849ZM19.9321 3.94917C20.2689 3.8251 20.6876 3.756 21.1993 3.756V2.756C20.6015 2.756 20.0603 2.83623 19.5864 3.01083L19.9321 3.94917ZM21.1993 3.756C22.1941 3.756 22.9023 4.02672 23.3928 4.50867L24.0937 3.79533C23.3682 3.08261 22.3804 2.756 21.1993 2.756V3.756ZM23.3961 4.51181C23.8606 4.96008 24.1553 5.76983 24.1553 7.08H25.1553C25.1553 5.6595 24.8419 4.51726 24.0904 3.79219L23.3961 4.51181ZM24.1553 7.08C24.1553 8.37789 23.8553 9.25809 23.3436 9.8131L24.0789 10.4909C24.8259 9.68057 25.1553 8.51277 25.1553 7.08H24.1553ZM23.3463 9.81022C22.8287 10.3629 22.1123 10.66 21.1353 10.66V11.66C22.3342 11.66 23.3352 11.2851 24.0762 10.4938L23.3463 9.81022ZM21.1353 10.66C20.2976 10.66 19.6129 10.4662 19.0574 10.1019L18.5091 10.9381C19.2549 11.4272 20.1383 11.66 21.1353 11.66V10.66ZM18.2833 10.52V14.456H19.2833V10.52H18.2833ZM18.7833 13.956H17.0393V14.956H18.7833V13.956ZM20.6873 10.348C21.5351 10.348 22.2494 10.0749 22.735 9.4627C23.203 8.87255 23.3953 8.04467 23.3953 7.064H22.3953C22.3953 7.93933 22.2195 8.50345 21.9515 8.8413C21.7011 9.15705 21.3114 9.348 20.6873 9.348V10.348ZM23.3953 7.064C23.3953 6.13329 23.2288 5.34243 22.7735 4.82848L22.025 5.49152C22.2311 5.72423 22.3953 6.20271 22.3953 7.064H23.3953ZM22.7781 4.83374C22.3112 4.29144 21.5812 4.084 20.7352 4.084V5.084C21.4466 5.084 21.826 5.26056 22.0204 5.48626L22.7781 4.83374ZM20.7352 4.084C19.8286 4.084 19.0473 4.40025 18.4261 5.03404L19.1404 5.73396C19.5646 5.30109 20.0845 5.084 20.7352 5.084V4.084ZM18.2833 5.384V9.176H19.2833V5.384H18.2833ZM18.4648 9.56148C18.7477 9.79515 19.0607 9.98519 19.4023 10.1316L19.7962 9.21243C19.5404 9.10281 19.3095 8.96218 19.1017 8.79052L18.4648 9.56148ZM19.4219 10.1395C19.8004 10.2831 20.2256 10.348 20.6873 10.348V9.348C20.3169 9.348 20.0168 9.29561 19.7766 9.2045L19.4219 10.1395ZM26.3518 11H25.8518V11.5H26.3518V11ZM26.3518 3.416V2.916H25.8518V3.416H26.3518ZM27.9518 3.416L28.4488 3.36178L28.4002 2.916H27.9518V3.416ZM28.0478 4.296L27.5507 4.35022L27.6386 5.15627L28.3194 4.71578L28.0478 4.296ZM29.3438 3.656L29.1649 3.18907L29.1649 3.18907L29.3438 3.656ZM30.8318 3.256H31.3318V2.67416L30.7565 2.76169L30.8318 3.256ZM30.8318 4.584L30.9196 5.07621L31.3318 5.00262V4.584H30.8318ZM29.8558 4.824L29.9912 5.30542L30.0008 5.30251L29.8558 4.824ZM28.8798 5.16L29.0571 5.6275L29.064 5.62486L29.0709 5.62201L28.8798 5.16ZM28.0958 5.528L27.8385 5.09925L27.5958 5.2449V5.528H28.0958ZM28.0958 11V11.5H28.5958V11H28.0958ZM26.8518 11V3.416H25.8518V11H26.8518ZM26.3518 3.916H27.9518V2.916H26.3518V3.916ZM27.4547 3.47022L27.5507 4.35022L28.5448 4.24178L28.4488 3.36178L27.4547 3.47022ZM28.3194 4.71578C28.6468 4.50392 29.0463 4.30535 29.5226 4.12293L29.1649 3.18907C28.6386 3.39065 28.174 3.61875 27.7761 3.87621L28.3194 4.71578ZM29.5226 4.12293C29.9932 3.94271 30.4545 3.81917 30.907 3.75031L30.7565 2.76169C30.2277 2.84216 29.697 2.98529 29.1649 3.18907L29.5226 4.12293ZM30.3318 3.256V4.584H31.3318V3.256H30.3318ZM30.7439 4.09179C30.4224 4.14919 30.0777 4.23428 29.7107 4.34549L30.0008 5.30251C30.3378 5.20038 30.6438 5.12547 30.9196 5.07621L30.7439 4.09179ZM29.7204 4.34267C29.3612 4.4437 29.0171 4.56203 28.6886 4.69799L29.0709 5.62201C29.361 5.50197 29.6676 5.3963 29.9911 5.30533L29.7204 4.34267ZM28.7024 4.6925C28.3738 4.81715 28.084 4.95195 27.8385 5.09925L28.353 5.95675C28.5342 5.84805 28.767 5.73752 29.0571 5.6275L28.7024 4.6925ZM27.5958 5.528V11H28.5958V5.528H27.5958ZM28.0958 10.5H26.3518V11.5H28.0958V10.5ZM32.5573 10.184L32.8911 9.81181L32.8911 9.81181L32.5573 10.184ZM32.3973 4.312L32.7728 4.64206L32.7728 4.64206L32.3973 4.312ZM37.8053 4.168L37.4422 4.51193L37.4485 4.51835L37.8053 4.168ZM38.6853 7.896V8.396H39.1853V7.896H38.6853ZM33.1332 7.896V7.396H32.5719L32.6366 7.95359L33.1332 7.896ZM33.9333 9.416L34.1964 8.99087L34.1964 8.99087L33.9333 9.416ZM38.2213 9.432H38.7213V8.69837L38.0384 8.96662L38.2213 9.432ZM38.2213 10.712L38.4217 11.1701L38.7213 11.039V10.712H38.2213ZM37.0373 11.048L36.9551 10.5548L36.9531 10.5551L37.0373 11.048ZM33.1332 6.76H32.6332V7.26H33.1332V6.76ZM37.1493 6.76V7.26H37.6493V6.76H37.1493ZM36.7173 5.016L36.3573 5.36313L36.3637 5.36955L36.7173 5.016ZM33.5813 5.096L33.2056 4.76589L33.2 4.77251L33.5813 5.096ZM35.6293 10.66C34.3853 10.66 33.4963 10.3547 32.8911 9.81181L32.2234 10.5562C33.0689 11.3147 34.2278 11.66 35.6293 11.66V10.66ZM32.8911 9.81181C32.307 9.28783 31.9693 8.44991 31.9693 7.192H30.9693C30.9693 8.62209 31.3568 9.77884 32.2234 10.5562L32.8911 9.81181ZM31.9693 7.192C31.9693 6.0605 32.2558 5.2304 32.7728 4.64206L32.0217 3.98194C31.3014 4.8016 30.9693 5.8915 30.9693 7.192H31.9693ZM32.7728 4.64206C33.267 4.07975 34.0465 3.756 35.2133 3.756V2.756C33.8627 2.756 32.7649 3.13625 32.0217 3.98194L32.7728 4.64206ZM35.2133 3.756C36.2811 3.756 36.9919 4.03646 37.4423 4.51187L38.1682 3.82413C37.4666 3.08354 36.4494 2.756 35.2133 2.756V3.756ZM37.4485 4.51835C37.9308 5.00942 38.1853 5.65066 38.1853 6.488H39.1853C39.1853 5.42667 38.853 4.52124 38.162 3.81765L37.4485 4.51835ZM38.1853 6.488V7.896H39.1853V6.488H38.1853ZM38.6853 7.396H33.1332V8.396H38.6853V7.396ZM32.6366 7.95359C32.732 8.77642 33.0452 9.45434 33.6701 9.84113L34.1964 8.99087C33.9253 8.823 33.7052 8.48758 33.6299 7.83841L32.6366 7.95359ZM33.6701 9.84113C34.2362 10.1916 35.0313 10.332 35.9813 10.332V9.332C35.0966 9.332 34.5263 9.19506 34.1964 8.99087L33.6701 9.84113ZM35.9813 10.332C36.3978 10.332 36.8228 10.2915 37.2558 10.2117L37.0747 9.22827C36.6971 9.29783 36.3327 9.332 35.9813 9.332V10.332ZM37.2558 10.2117C37.6843 10.1328 38.0686 10.0292 38.4041 9.89738L38.0384 8.96662C37.7766 9.06948 37.4569 9.15787 37.0747 9.22827L37.2558 10.2117ZM37.7213 9.432V10.712H38.7213V9.432H37.7213ZM38.0208 10.2539C37.7245 10.3836 37.3709 10.4855 36.9551 10.5548L37.1195 11.5412C37.5996 11.4612 38.0353 11.3391 38.4217 11.1701L38.0208 10.2539ZM36.9531 10.5551C36.5469 10.6245 36.1059 10.66 35.6293 10.66V11.66C36.1552 11.66 36.653 11.6208 37.1214 11.5409L36.9531 10.5551ZM33.1332 7.26H37.1493V6.26H33.1332V7.26ZM37.6493 6.76V6.232H36.6493V6.76H37.6493ZM37.6493 6.232C37.6493 5.61605 37.4771 5.06878 37.0708 4.66245L36.3637 5.36955C36.5334 5.53922 36.6493 5.80261 36.6493 6.232H37.6493ZM37.0772 4.66893C36.6494 4.22532 35.9959 4.068 35.2613 4.068V5.068C35.8919 5.068 36.2091 5.20935 36.3573 5.36307L37.0772 4.66893ZM35.2613 4.068C34.4064 4.068 33.6602 4.24869 33.2057 4.76594L33.9568 5.42606C34.1209 5.23931 34.4948 5.068 35.2613 5.068V4.068ZM33.2 4.77251C32.7888 5.25708 32.6332 5.95479 32.6332 6.76H33.6332C33.6332 6.05055 33.7763 5.63892 33.9625 5.41949L33.2 4.77251ZM41.3289 11.048L41.2503 11.5418L41.252 11.5421L41.3289 11.048ZM40.1609 10.776H39.6609V11.1325L39.9979 11.2487L40.1609 10.776ZM40.1609 9.304L40.3394 8.83697L39.6609 8.57752V9.304H40.1609ZM41.3609 9.624L41.445 9.13113L41.445 9.13113L41.3609 9.624ZM43.8889 9.576L43.6966 9.11446L43.6966 9.11446L43.8889 9.576ZM44.0329 8.424L43.7075 8.80363L43.7139 8.80914L43.7205 8.81443L44.0329 8.424ZM43.3449 8.072L43.1767 8.5429L43.1819 8.54469L43.3449 8.072ZM42.1929 7.688L42.0347 8.16239L42.0413 8.16446L42.1929 7.688ZM41.0249 7.208L40.7844 7.64654L40.7956 7.65231L41.0249 7.208ZM40.2569 6.52L39.8384 6.79362L39.8384 6.79362L40.2569 6.52ZM40.7369 3.832L41.0355 4.23306L41.0409 4.22894L40.7369 3.832ZM44.4009 3.352L44.3208 3.84555L44.3208 3.84555L44.4009 3.352ZM45.4089 3.592H45.9089V3.23597L45.5724 3.11951L45.4089 3.592ZM45.4089 5.048L45.226 5.51338L45.9089 5.78163V5.048H45.4089ZM44.4169 4.776L44.3274 5.26794L44.33 5.26839L44.4169 4.776ZM42.1609 4.824L42.0028 4.34963L41.9973 4.35151L42.1609 4.824ZM42.1769 6.04L41.9738 6.49691L41.9838 6.50136L41.994 6.50538L42.1769 6.04ZM43.6009 6.536L43.4451 7.01123L43.4556 7.01444L43.6009 6.536ZM45.0249 7.112L44.7754 7.54531L44.7754 7.54531L45.0249 7.112ZM45.7769 7.848L45.333 8.07816L45.3382 8.08813L45.3438 8.09786L45.7769 7.848ZM45.2009 10.616L45.4783 11.0321L45.4838 11.0283L45.2009 10.616ZM42.8329 10.66C42.334 10.66 41.8585 10.6244 41.4057 10.5539L41.252 11.5421C41.7593 11.621 42.2864 11.66 42.8329 11.66V10.66ZM41.4074 10.5542C40.9552 10.4823 40.5965 10.3973 40.3239 10.3033L39.9979 11.2487C40.3439 11.368 40.7639 11.4644 41.2503 11.5418L41.4074 10.5542ZM40.6609 10.776V9.304H39.6609V10.776H40.6609ZM39.9823 9.77103C40.3795 9.92289 40.8116 10.0375 41.2767 10.1169L41.445 9.13113C41.0355 9.06121 40.6676 8.96244 40.3394 8.83697L39.9823 9.77103ZM41.2767 10.1169C41.7385 10.1957 42.1828 10.236 42.6089 10.236V9.236C42.2456 9.236 41.8579 9.20163 41.445 9.13113L41.2767 10.1169ZM42.6089 10.236C43.2135 10.236 43.7268 10.1852 44.0812 10.0375L43.6966 9.11446C43.5389 9.18014 43.1989 9.236 42.6089 9.236V10.236ZM44.0812 10.0375C44.2924 9.94955 44.4764 9.80723 44.6027 9.60205C44.7266 9.40077 44.7729 9.17479 44.7729 8.952H43.7729C43.7729 9.03854 43.7552 9.07123 43.751 9.07795C43.7493 9.08077 43.7414 9.09579 43.6966 9.11446L44.0812 10.0375ZM44.7729 8.952C44.7729 8.59229 44.6359 8.26612 44.3452 8.03357L43.7205 8.81443C43.7498 8.83788 43.7729 8.86371 43.7729 8.952H44.7729ZM44.3583 8.04437C44.1398 7.85707 43.8425 7.7147 43.5079 7.59931L43.1819 8.54469C43.4659 8.64263 43.6273 8.73493 43.7075 8.80363L44.3583 8.04437ZM43.513 7.60113C43.2068 7.49174 42.8167 7.36179 42.3445 7.21154L42.0413 8.16446C42.5077 8.31288 42.8857 8.43892 43.1767 8.54287L43.513 7.60113ZM42.351 7.21366C41.9213 7.07042 41.5568 6.91987 41.2542 6.76369L40.7956 7.65231C41.1543 7.83746 41.5685 8.00691 42.0348 8.16234L42.351 7.21366ZM41.2653 6.76959C40.9966 6.62223 40.8059 6.446 40.6754 6.24638L39.8384 6.79362C40.0705 7.14866 40.3919 7.43111 40.7845 7.64641L41.2653 6.76959ZM40.6754 6.24638C40.5629 6.07438 40.4849 5.81611 40.4849 5.432H39.4849C39.4849 5.94389 39.5882 6.41095 39.8384 6.79362L40.6754 6.24638ZM40.4849 5.432C40.4849 4.87676 40.676 4.50072 41.0355 4.23302L40.4382 3.43098C39.7951 3.90995 39.4849 4.60058 39.4849 5.432H40.4849ZM41.0409 4.22894C41.4103 3.946 42.0793 3.756 43.1529 3.756V2.756C42.0078 2.756 41.0661 2.95 40.4328 3.43506L41.0409 4.22894ZM43.1529 3.756C43.5659 3.756 43.955 3.78622 44.3208 3.84555L44.4809 2.85845C44.0575 2.78978 43.6145 2.756 43.1529 2.756V3.756ZM44.3208 3.84555C44.6965 3.90648 45.0029 3.98058 45.2453 4.06449L45.5724 3.11951C45.2602 3.01142 44.8945 2.92552 44.4809 2.85845L44.3208 3.84555ZM44.9089 3.592V5.048H45.9089V3.592H44.9089ZM45.5917 4.58262C45.2579 4.45148 44.8945 4.35257 44.5038 4.28361L44.33 5.26839C44.6646 5.32743 44.9625 5.40985 45.226 5.51338L45.5917 4.58262ZM44.5063 4.28406C44.1293 4.21551 43.7684 4.18 43.4249 4.18V5.18C43.7 5.18 44.0005 5.20849 44.3274 5.26793L44.5063 4.28406ZM43.4249 4.18C42.8532 4.18 42.3677 4.22802 42.0028 4.34966L42.319 5.29834C42.5301 5.22798 42.8872 5.18 43.4249 5.18V4.18ZM41.9973 4.35151C41.785 4.42501 41.5861 4.54981 41.4435 4.74725C41.3004 4.94548 41.2449 5.17404 41.2449 5.4H42.2449C42.2449 5.33796 42.2587 5.32652 42.2542 5.33275C42.2503 5.33819 42.2594 5.31899 42.3244 5.29649L41.9973 4.35151ZM41.2449 5.4C41.2449 5.63261 41.3021 5.86181 41.4385 6.06374C41.5736 6.2639 41.7634 6.40339 41.9738 6.49691L42.3799 5.58309C42.3023 5.54861 42.2762 5.51743 42.2673 5.50426C42.2596 5.49286 42.2449 5.46606 42.2449 5.4H41.2449ZM41.994 6.50538C42.3069 6.62829 42.7931 6.79735 43.4451 7.01111L43.7567 6.06089C43.1073 5.84798 42.6442 5.68637 42.3597 5.57462L41.994 6.50538ZM43.4556 7.01444C44.0338 7.18995 44.4689 7.36884 44.7754 7.54531L45.2744 6.67869C44.8769 6.44983 44.3626 6.24471 43.7461 6.05756L43.4556 7.01444ZM44.7754 7.54531C45.0653 7.71224 45.2376 7.89416 45.333 8.07816L46.2208 7.61784C46.0175 7.22584 45.6884 6.91709 45.2744 6.67869L44.7754 7.54531ZM45.3438 8.09786C45.4459 8.27482 45.5169 8.54244 45.5169 8.936H46.5169C46.5169 8.43356 46.4279 7.97585 46.21 7.59814L45.3438 8.09786ZM45.5169 8.936C45.5169 9.54312 45.3065 9.93709 44.918 10.2037L45.4838 11.0283C46.1832 10.5482 46.5169 9.82221 46.5169 8.936H45.5169ZM44.9235 10.2C44.4967 10.4845 43.8216 10.66 42.8329 10.66V11.66C43.9134 11.66 44.8171 11.4728 45.4782 11.032L44.9235 10.2ZM48.3445 11.048L48.2659 11.5418L48.2676 11.5421L48.3445 11.048ZM47.1765 10.776H46.6765V11.1325L47.0135 11.2487L47.1765 10.776ZM47.1765 9.304L47.3551 8.83697L46.6765 8.57752V9.304H47.1765ZM48.3765 9.624L48.4606 9.13113L48.4606 9.13113L48.3765 9.624ZM50.9045 9.576L50.7122 9.11446L50.7122 9.11446L50.9045 9.576ZM51.0485 8.424L50.7231 8.80363L50.7295 8.80914L50.7362 8.81443L51.0485 8.424ZM50.3605 8.072L50.1923 8.5429L50.1975 8.54469L50.3605 8.072ZM49.2085 7.688L49.0504 8.16239L49.0569 8.16446L49.2085 7.688ZM48.0405 7.208L47.8 7.64654L47.8112 7.65231L48.0405 7.208ZM47.2725 6.52L46.854 6.79362L46.854 6.79362L47.2725 6.52ZM47.7525 3.832L48.0512 4.23306L48.0565 4.22894L47.7525 3.832ZM51.4165 3.352L51.3365 3.84555L51.3365 3.84555L51.4165 3.352ZM52.4245 3.592H52.9245V3.23597L52.5881 3.11951L52.4245 3.592ZM52.4245 5.048L52.2417 5.51338L52.9245 5.78163V5.048H52.4245ZM51.4325 4.776L51.3431 5.26794L51.3456 5.26839L51.4325 4.776ZM49.1765 4.824L49.0184 4.34963L49.0129 4.35151L49.1765 4.824ZM49.1925 6.04L48.9894 6.49691L48.9995 6.50136L49.0097 6.50538L49.1925 6.04ZM50.6165 6.536L50.4607 7.01123L50.4713 7.01444L50.6165 6.536ZM52.0405 7.112L51.791 7.54531L51.791 7.54531L52.0405 7.112ZM52.7925 7.848L52.3486 8.07816L52.3538 8.08813L52.3594 8.09786L52.7925 7.848ZM52.2165 10.616L52.4939 11.0321L52.4994 11.0283L52.2165 10.616ZM49.8485 10.66C49.3496 10.66 48.8741 10.6244 48.4214 10.5539L48.2676 11.5421C48.7749 11.621 49.302 11.66 49.8485 11.66V10.66ZM48.4231 10.5542C47.9708 10.4823 47.6121 10.3973 47.3395 10.3033L47.0135 11.2487C47.3596 11.368 47.7795 11.4644 48.2659 11.5418L48.4231 10.5542ZM47.6765 10.776V9.304H46.6765V10.776H47.6765ZM46.9979 9.77103C47.3951 9.92289 47.8272 10.0375 48.2924 10.1169L48.4606 9.13113C48.0511 9.06121 47.6832 8.96244 47.3551 8.83697L46.9979 9.77103ZM48.2924 10.1169C48.7541 10.1957 49.1984 10.236 49.6245 10.236V9.236C49.2613 9.236 48.8735 9.20163 48.4606 9.13113L48.2924 10.1169ZM49.6245 10.236C50.2292 10.236 50.7424 10.1852 51.0968 10.0375L50.7122 9.11446C50.5546 9.18014 50.2145 9.236 49.6245 9.236V10.236ZM51.0968 10.0375C51.308 9.94955 51.4921 9.80723 51.6183 9.60205C51.7422 9.40077 51.7885 9.17479 51.7885 8.952H50.7885C50.7885 9.03854 50.7708 9.07123 50.7667 9.07795C50.7649 9.08077 50.757 9.09579 50.7122 9.11446L51.0968 10.0375ZM51.7885 8.952C51.7885 8.59229 51.6515 8.26612 51.3608 8.03357L50.7362 8.81443C50.7655 8.83788 50.7885 8.86371 50.7885 8.952H51.7885ZM51.3739 8.04437C51.1554 7.85707 50.8581 7.7147 50.5235 7.59931L50.1975 8.54469C50.4815 8.64263 50.643 8.73493 50.7231 8.80363L51.3739 8.04437ZM50.5287 7.60113C50.2224 7.49174 49.8323 7.36179 49.3601 7.21154L49.0569 8.16446C49.5233 8.31288 49.9013 8.43892 50.1923 8.54287L50.5287 7.60113ZM49.3666 7.21366C48.9369 7.07042 48.5724 6.91987 48.2698 6.76369L47.8112 7.65231C48.1699 7.83746 48.5841 8.00691 49.0504 8.16234L49.3666 7.21366ZM48.2809 6.76959C48.0122 6.62223 47.8215 6.446 47.691 6.24638L46.854 6.79362C47.0862 7.14866 47.4075 7.43111 47.8001 7.64641L48.2809 6.76959ZM47.691 6.24638C47.5785 6.07438 47.5005 5.81611 47.5005 5.432H46.5005C46.5005 5.94389 46.6038 6.41095 46.854 6.79362L47.691 6.24638ZM47.5005 5.432C47.5005 4.87676 47.6917 4.50072 48.0511 4.23302L47.4539 3.43098C46.8107 3.90995 46.5005 4.60058 46.5005 5.432H47.5005ZM48.0565 4.22894C48.4259 3.946 49.0949 3.756 50.1685 3.756V2.756C49.0234 2.756 48.0817 2.95 47.4485 3.43506L48.0565 4.22894ZM50.1685 3.756C50.5815 3.756 50.9706 3.78622 51.3365 3.84555L51.4965 2.85845C51.0731 2.78978 50.6302 2.756 50.1685 2.756V3.756ZM51.3365 3.84555C51.7122 3.90648 52.0185 3.98058 52.2609 4.06449L52.5881 3.11951C52.2758 3.01142 51.9102 2.92552 51.4965 2.85845L51.3365 3.84555ZM51.9245 3.592V5.048H52.9245V3.592H51.9245ZM52.6073 4.58262C52.2735 4.45148 51.9102 4.35257 51.5194 4.28361L51.3456 5.26839C51.6802 5.32743 51.9782 5.40985 52.2417 5.51338L52.6073 4.58262ZM51.5219 4.28406C51.1449 4.21551 50.7841 4.18 50.4405 4.18V5.18C50.7156 5.18 51.0161 5.20849 51.3431 5.26793L51.5219 4.28406ZM50.4405 4.18C49.8688 4.18 49.3833 4.22802 49.0184 4.34966L49.3346 5.29834C49.5457 5.22798 49.9029 5.18 50.4405 5.18V4.18ZM49.0129 4.35151C48.8006 4.42501 48.6018 4.54981 48.4592 4.74725C48.316 4.94548 48.2605 5.17404 48.2605 5.4H49.2605C49.2605 5.33796 49.2743 5.32652 49.2698 5.33275C49.2659 5.33819 49.2751 5.31899 49.3401 5.29649L49.0129 4.35151ZM48.2605 5.4C48.2605 5.63261 48.3178 5.86181 48.4541 6.06374C48.5892 6.2639 48.779 6.40339 48.9894 6.49691L49.3956 5.58309C49.318 5.54861 49.2918 5.51743 49.2829 5.50426C49.2752 5.49286 49.2605 5.46606 49.2605 5.4H48.2605ZM49.0097 6.50538C49.3226 6.62829 49.8087 6.79735 50.4607 7.01111L50.7723 6.06089C50.1229 5.84798 49.6598 5.68637 49.3753 5.57462L49.0097 6.50538ZM50.4713 7.01444C51.0494 7.18995 51.4845 7.36884 51.791 7.54531L52.29 6.67869C51.8925 6.44983 51.3782 6.24471 50.7617 6.05756L50.4713 7.01444ZM51.791 7.54531C52.081 7.71224 52.2532 7.89416 52.3486 8.07816L53.2364 7.61784C53.0331 7.22584 52.704 6.91709 52.29 6.67869L51.791 7.54531ZM52.3594 8.09786C52.4615 8.27482 52.5325 8.54244 52.5325 8.936H53.5325C53.5325 8.43356 53.4435 7.97585 53.2256 7.59814L52.3594 8.09786ZM52.5325 8.936C52.5325 9.54312 52.3221 9.93709 51.9336 10.2037L52.4994 11.0283C53.1989 10.5482 53.5325 9.82221 53.5325 8.936H52.5325ZM51.9392 10.2C51.5123 10.4845 50.8373 10.66 49.8485 10.66V11.66C50.9291 11.66 51.8327 11.4728 52.4939 11.032L51.9392 10.2ZM54.4224 11H53.9224V11.5H54.4224V11ZM54.4224 9.64V9.14H53.9224V9.64H54.4224ZM55.8944 9.64H56.3944V9.14H55.8944V9.64ZM55.8944 11V11.5H56.3944V11H55.8944ZM54.9224 11V9.64H53.9224V11H54.9224ZM54.4224 10.14H55.8944V9.14H54.4224V10.14ZM55.3944 9.64V11H56.3944V9.64H55.3944ZM55.8944 10.5H54.4224V11.5H55.8944V10.5ZM58.6098 1.832H58.1098V2.332H58.6098V1.832ZM58.6098 0.391999V-0.108001H58.1098V0.391999H58.6098ZM60.5138 0.391999H61.0138V-0.108001H60.5138V0.391999ZM60.5138 1.832V2.332H61.0138V1.832H60.5138ZM56.4657 14.488H55.9657V14.8296L56.284 14.9538L56.4657 14.488ZM56.4657 13.224L56.6068 12.7443L55.9657 12.5558V13.224H56.4657ZM56.9778 13.336L57.0699 12.8446L57.0569 12.8421L57.0438 12.8404L56.9778 13.336ZM58.4818 13.112L58.1482 12.7392L58.1384 12.7485L58.4818 13.112ZM58.7858 4.744H59.2858V4.244H58.7858V4.744ZM57.6338 4.744L57.1373 4.68419L57.0699 5.244H57.6338V4.744ZM57.7938 3.416V2.916H57.3504L57.2973 3.35619L57.7938 3.416ZM60.5138 3.416H61.0138V2.916H60.5138V3.416ZM59.8898 14.088L59.5316 13.7388L59.523 13.7481L59.8898 14.088ZM59.1098 1.832V0.391999H58.1098V1.832H59.1098ZM58.6098 0.891999H60.5138V-0.108001H58.6098V0.891999ZM60.0138 0.391999V1.832H61.0138V0.391999H60.0138ZM60.5138 1.332H58.6098V2.332H60.5138V1.332ZM58.0498 14.244C57.4746 14.244 57.0117 14.1643 56.6475 14.0222L56.284 14.9538C56.7944 15.153 57.3876 15.244 58.0498 15.244V14.244ZM56.9657 14.488V13.224H55.9657V14.488H56.9657ZM56.3247 13.7037C56.5265 13.7631 56.7224 13.8064 56.9117 13.8316L57.0438 12.8404C56.9131 12.8229 56.7676 12.7916 56.6068 12.7443L56.3247 13.7037ZM56.8856 13.8274C57.0794 13.8638 57.2656 13.884 57.4418 13.884V12.884C57.3406 12.884 57.2174 12.8722 57.0699 12.8446L56.8856 13.8274ZM57.4418 13.884C57.9695 13.884 58.4863 13.7954 58.8251 13.4755L58.1384 12.7485C58.0932 12.7912 57.9167 12.884 57.4418 12.884V13.884ZM58.8151 13.4846C59.1693 13.1678 59.2858 12.6991 59.2858 12.216H58.2858C58.2858 12.5649 58.1996 12.6935 58.1484 12.7394L58.8151 13.4846ZM59.2858 12.216V4.744H58.2858V12.216H59.2858ZM58.7858 4.244H57.6338V5.244H58.7858V4.244ZM58.1302 4.80381L58.2902 3.47581L57.2973 3.35619L57.1373 4.68419L58.1302 4.80381ZM57.7938 3.916H60.5138V2.916H57.7938V3.916ZM60.0138 3.416V12.376H61.0138V3.416H60.0138ZM60.0138 12.376C60.0138 12.988 59.839 13.4238 59.5318 13.739L60.2478 14.4371C60.7725 13.8989 61.0138 13.1934 61.0138 12.376H60.0138ZM59.523 13.7481C59.2438 14.0494 58.7862 14.244 58.0498 14.244V15.244C58.956 15.244 59.725 15.0013 60.2565 14.4279L59.523 13.7481ZM63.5476 11.048L63.4691 11.5418L63.4708 11.5421L63.5476 11.048ZM62.3796 10.776H61.8796V11.1325L62.2166 11.2487L62.3796 10.776ZM62.3796 9.304L62.5582 8.83697L61.8796 8.57752V9.304H62.3796ZM63.5796 9.624L63.6638 9.13113L63.6638 9.13113L63.5796 9.624ZM66.1076 9.576L65.9153 9.11446L65.9153 9.11446L66.1076 9.576ZM66.2516 8.424L65.9262 8.80363L65.9327 8.80914L65.9393 8.81443L66.2516 8.424ZM65.5636 8.072L65.3954 8.5429L65.4006 8.54469L65.5636 8.072ZM64.4116 7.688L64.2535 8.16239L64.26 8.16446L64.4116 7.688ZM63.2436 7.208L63.0031 7.64654L63.0143 7.65231L63.2436 7.208ZM62.4756 6.52L62.0571 6.79362L62.0571 6.79362L62.4756 6.52ZM62.9556 3.832L63.2543 4.23306L63.2597 4.22894L62.9556 3.832ZM66.6196 3.352L66.5396 3.84555L66.5396 3.84555L66.6196 3.352ZM67.6276 3.592H68.1276V3.23597L67.7912 3.11951L67.6276 3.592ZM67.6276 5.048L67.4448 5.51338L68.1276 5.78163V5.048H67.6276ZM66.6356 4.776L66.5462 5.26794L66.5487 5.26839L66.6356 4.776ZM64.3796 4.824L64.2215 4.34963L64.2161 4.35151L64.3796 4.824ZM64.3956 6.04L64.1926 6.49691L64.2026 6.50136L64.2128 6.50538L64.3956 6.04ZM65.8196 6.536L65.6638 7.01123L65.6744 7.01444L65.8196 6.536ZM67.2436 7.112L66.9941 7.54531L66.9941 7.54531L67.2436 7.112ZM67.9956 7.848L67.5517 8.07816L67.5569 8.08813L67.5625 8.09786L67.9956 7.848ZM67.4196 10.616L67.697 11.0321L67.7025 11.0283L67.4196 10.616ZM65.0516 10.66C64.5528 10.66 64.0772 10.6244 63.6245 10.5539L63.4708 11.5421C63.978 11.621 64.5052 11.66 65.0516 11.66V10.66ZM63.6262 10.5542C63.1739 10.4823 62.8152 10.3973 62.5426 10.3033L62.2166 11.2487C62.5627 11.368 62.9827 11.4644 63.4691 11.5418L63.6262 10.5542ZM62.8796 10.776V9.304H61.8796V10.776H62.8796ZM62.2011 9.77103C62.5982 9.92289 63.0304 10.0375 63.4955 10.1169L63.6638 9.13113C63.2542 9.06121 62.8863 8.96244 62.5582 8.83697L62.2011 9.77103ZM63.4955 10.1169C63.9572 10.1957 64.4015 10.236 64.8276 10.236V9.236C64.4644 9.236 64.0767 9.20163 63.6638 9.13113L63.4955 10.1169ZM64.8276 10.236C65.4323 10.236 65.9456 10.1852 66.2999 10.0375L65.9153 9.11446C65.7577 9.18014 65.4176 9.236 64.8276 9.236V10.236ZM66.2999 10.0375C66.5111 9.94955 66.6952 9.80723 66.8215 9.60205C66.9453 9.40077 66.9916 9.17479 66.9916 8.952H65.9916C65.9916 9.03854 65.9739 9.07123 65.9698 9.07795C65.9681 9.08077 65.9601 9.09579 65.9153 9.11446L66.2999 10.0375ZM66.9916 8.952C66.9916 8.59229 66.8547 8.26612 66.564 8.03357L65.9393 8.81443C65.9686 8.83788 65.9916 8.86371 65.9916 8.952H66.9916ZM66.577 8.04437C66.3585 7.85707 66.0613 7.7147 65.7266 7.59931L65.4006 8.54469C65.6847 8.64263 65.8461 8.73493 65.9262 8.80363L66.577 8.04437ZM65.7318 7.60113C65.4255 7.49174 65.0354 7.36179 64.5632 7.21154L64.26 8.16446C64.7265 8.31288 65.1044 8.43892 65.3955 8.54287L65.7318 7.60113ZM64.5697 7.21366C64.14 7.07042 63.7756 6.91987 63.4729 6.76369L63.0143 7.65231C63.373 7.83746 63.7872 8.00691 64.2535 8.16234L64.5697 7.21366ZM63.484 6.76959C63.2153 6.62223 63.0246 6.446 62.8941 6.24638L62.0571 6.79362C62.2893 7.14866 62.6106 7.43111 63.0032 7.64641L63.484 6.76959ZM62.8941 6.24638C62.7817 6.07438 62.7036 5.81611 62.7036 5.432H61.7036C61.7036 5.94389 61.8069 6.41095 62.0571 6.79362L62.8941 6.24638ZM62.7036 5.432C62.7036 4.87676 62.8948 4.50072 63.2543 4.23302L62.657 3.43098C62.0138 3.90995 61.7036 4.60058 61.7036 5.432H62.7036ZM63.2597 4.22894C63.6291 3.946 64.2981 3.756 65.3716 3.756V2.756C64.2265 2.756 63.2849 2.95 62.6516 3.43506L63.2597 4.22894ZM65.3716 3.756C65.7846 3.756 66.1737 3.78622 66.5396 3.84555L66.6997 2.85845C66.2762 2.78978 65.8333 2.756 65.3716 2.756V3.756ZM66.5396 3.84555C66.9153 3.90648 67.2217 3.98058 67.4641 4.06449L67.7912 3.11951C67.4789 3.01142 67.1133 2.92552 66.6997 2.85845L66.5396 3.84555ZM67.1276 3.592V5.048H68.1276V3.592H67.1276ZM67.8105 4.58262C67.4766 4.45148 67.1133 4.35257 66.7225 4.28361L66.5487 5.26839C66.8833 5.32743 67.1813 5.40985 67.4448 5.51338L67.8105 4.58262ZM66.7251 4.28406C66.348 4.21551 65.9872 4.18 65.6436 4.18V5.18C65.9187 5.18 66.2192 5.20849 66.5462 5.26793L66.7251 4.28406ZM65.6436 4.18C65.0719 4.18 64.5864 4.22802 64.2215 4.34966L64.5377 5.29834C64.7488 5.22798 65.106 5.18 65.6436 5.18V4.18ZM64.2161 4.35151C64.0037 4.42501 63.8049 4.54981 63.6623 4.74725C63.5191 4.94548 63.4636 5.17404 63.4636 5.4H64.4636C64.4636 5.33796 64.4775 5.32652 64.473 5.33275C64.469 5.33819 64.4782 5.31899 64.5432 5.29649L64.2161 4.35151ZM63.4636 5.4C63.4636 5.63261 63.5209 5.86181 63.6572 6.06374C63.7923 6.2639 63.9822 6.40339 64.1926 6.49691L64.5987 5.58309C64.5211 5.54861 64.4949 5.51743 64.486 5.50426C64.4784 5.49286 64.4636 5.46606 64.4636 5.4H63.4636ZM64.2128 6.50538C64.5257 6.62829 65.0119 6.79735 65.6639 7.01111L65.9754 6.06089C65.3261 5.84798 64.8629 5.68637 64.5785 5.57462L64.2128 6.50538ZM65.6744 7.01444C66.2525 7.18995 66.6876 7.36884 66.9941 7.54531L67.4931 6.67869C67.0956 6.44983 66.5814 6.24471 65.9649 6.05756L65.6744 7.01444ZM66.9941 7.54531C67.2841 7.71224 67.4563 7.89416 67.5517 8.07816L68.4395 7.61784C68.2362 7.22584 67.9072 6.91709 67.4931 6.67869L66.9941 7.54531ZM67.5625 8.09786C67.6646 8.27482 67.7356 8.54244 67.7356 8.936H68.7356C68.7356 8.43356 68.6466 7.97585 68.4287 7.59814L67.5625 8.09786ZM67.7356 8.936C67.7356 9.54312 67.5253 9.93709 67.1367 10.2037L67.7025 11.0283C68.402 10.5482 68.7356 9.82221 68.7356 8.936H67.7356ZM67.1423 10.2C66.7155 10.4845 66.0404 10.66 65.0516 10.66V11.66C66.1322 11.66 67.0358 11.4728 67.697 11.032L67.1423 10.2Z" fill="white"/>
</svg>
