<svg width="27" height="27" viewBox="0 0 27 27" fill="none" xmlns="http://www.w3.org/2000/svg">
    <path d="M2.47413 0.537842C2.23588 0.537842 2.05832 0.73201 2.07947 0.969314L4.08817 23.4999C4.10932 23.7372 4.3144 23.9835 4.54411 24.0474L13.0679 26.414C13.2975 26.4778 13.6732 26.4778 13.9028 26.4142L22.4525 24.0436C22.6821 23.9799 22.8875 23.7336 22.9086 23.4964L24.9206 0.969367C24.9419 0.732062 24.7642 0.537895 24.5259 0.537895L2.47413 0.537842ZM9.65476 15.4301C9.89301 15.4301 10.1052 15.6243 10.1265 15.8616L10.2538 17.2876C10.2749 17.5249 10.4803 17.7698 10.7105 17.8319L13.0689 18.4688C13.2988 18.531 13.4879 18.5819 13.4889 18.5819C13.4899 18.5819 13.6789 18.5309 13.9089 18.4688L16.2716 17.8303C16.5015 17.7682 16.7071 17.5232 16.7284 17.286L16.9846 14.429C17.0059 14.1917 16.8284 13.9975 16.5902 13.9975H7.51348C7.27523 13.9975 7.06302 13.8032 7.04188 13.566L6.34025 5.70523C6.32142 5.49361 6.50088 5.32038 6.73918 5.32038H20.244C20.4821 5.32038 20.6617 5.49356 20.6428 5.70528L20.4154 8.18923H9.87429C9.63604 8.18923 9.45848 8.3834 9.47963 8.6207L9.66531 10.6962C9.68645 10.9334 9.89876 11.1276 10.1371 11.1276H19.7725C19.9847 11.1276 20.1427 11.3008 20.1235 11.5125L19.3931 19.6937C19.3812 19.8269 19.1838 19.988 18.9542 20.0516L13.9175 21.4482C13.6879 21.5118 13.4971 21.5645 13.4936 21.5652C13.4901 21.566 13.2993 21.5144 13.0697 21.4508L8.02764 20.0517C7.79804 19.988 7.5929 19.7416 7.5717 19.5043L7.24717 15.8616C7.22603 15.6243 7.40374 15.4301 7.64199 15.4301H9.65476Z" fill="#FB8028"/>
    <path d="M13.4856 27C13.286 27 13.0865 26.9774 12.924 26.9322L4.40024 24.5655C3.95764 24.4426 3.59319 24.005 3.55248 23.5475L1.54372 1.01704C1.52031 0.753838 1.60748 0.493066 1.78277 0.30143C1.95806 0.109898 2.21002 0 2.47412 0H24.5258C24.7901 0 25.0423 0.110004 25.2176 0.301799C25.3928 0.493541 25.4798 0.754418 25.4562 1.01751L23.4442 23.5442C23.4034 24.0016 23.0388 24.4391 22.5961 24.5619L14.0465 26.9324C13.8839 26.9775 13.6847 27 13.4856 27ZM2.62889 1.07568L4.62389 23.4521C4.62937 23.473 4.6685 23.52 4.69297 23.5307L13.2117 25.8957C13.3472 25.9334 13.6234 25.9334 13.7593 25.8958L22.3088 23.5253C22.3278 23.5164 22.3658 23.4711 22.3732 23.4448L24.371 1.07568H2.62889V1.07568ZM13.5016 22.1061C13.4203 22.1061 13.3038 22.0738 12.9259 21.9689L7.88377 20.5698C7.44127 20.4472 7.07672 20.0096 7.03596 19.5521L6.71138 15.9093C6.68791 15.6462 6.77508 15.3855 6.95032 15.1938C7.12566 15.0021 7.37767 14.8922 7.64187 14.8922H9.65464C10.1733 14.8922 10.6158 15.2969 10.662 15.8135L10.789 17.2359C10.7961 17.2605 10.8313 17.3024 10.8543 17.3136L13.2089 17.9495C13.3163 17.9785 13.4147 18.005 13.4886 18.0249C13.5626 18.005 13.661 17.9784 13.7685 17.9494L16.1273 17.3119C16.1505 17.3006 16.1858 17.2585 16.1929 17.2338L16.4349 14.5351H7.51352C6.99472 14.5351 6.55228 14.1303 6.50619 13.6135L5.80456 5.75279C5.78267 5.50626 5.86304 5.26964 6.03079 5.08618C6.2075 4.89306 6.46574 4.78232 6.73917 4.78232H20.244C20.244 4.78232 20.2441 4.78232 20.2442 4.78232C20.5174 4.78232 20.7755 4.89312 20.9522 5.08618C21.12 5.26959 21.2004 5.50637 21.1785 5.75274L20.9509 8.23811C20.9256 8.51491 20.6934 8.72691 20.4154 8.72691H10.0291L10.1958 10.5896H19.7725C20.0243 10.5896 20.2646 10.6946 20.4318 10.8776C20.5991 11.0608 20.6819 11.3099 20.6591 11.561L19.9287 19.7414C19.891 20.1648 19.4843 20.4626 19.0979 20.5698L14.0612 21.9664C13.6309 22.0856 13.6263 22.0865 13.6095 22.0904C13.5672 22.0997 13.5379 22.1061 13.5016 22.1061ZM8.17497 19.5343L13.2135 20.9324C13.3287 20.9643 13.4222 20.9899 13.49 21.0083C13.5651 20.9875 13.6651 20.9599 13.7739 20.9297L18.8105 19.5332C18.8325 19.5271 18.8526 19.5188 18.8695 19.5104L19.5698 11.6654H10.1371C9.61815 11.6654 9.17555 11.2605 9.12956 10.7437L8.94394 8.66848C8.92042 8.40523 9.00759 8.14446 9.18283 7.95277C9.35811 7.76113 9.61008 7.65123 9.87423 7.65123H19.9244L20.0887 5.858H6.89394L7.57237 13.4594H16.5902C16.8544 13.4594 17.1065 13.5694 17.2817 13.7611C17.457 13.9528 17.544 14.2137 17.5203 14.4769L17.2641 17.3338C17.223 17.7926 16.8565 18.2292 16.4118 18.3493L14.0492 18.9877C13.5616 19.1195 13.5616 19.1195 13.4889 19.1195C13.416 19.1195 13.416 19.1195 12.9287 18.9879L10.5703 18.351C10.1253 18.2309 9.759 17.7942 9.71813 17.3351L9.59605 15.9678H7.7967L8.10715 19.4527C8.11427 19.4785 8.15097 19.5226 8.17497 19.5343Z" fill="#C63F00"/>
</svg>
