<svg width="30" height="31" viewBox="0 0 30 31" fill="none" xmlns="http://www.w3.org/2000/svg">
    <path d="M6.856 26.7304C6.05928 26.5019 5.48608 25.8056 5.41486 24.9798L3.61481 4.10936C3.51407 2.94131 4.43503 1.9375 5.60741 1.9375H24.3923C25.5648 1.9375 26.4858 2.94148 26.3849 4.10961L24.5825 24.9757C24.5112 25.8016 23.9377 26.4979 23.1408 26.7262L15.5371 28.9046C15.1769 29.0078 14.795 29.0077 14.4348 28.9044L6.856 26.7304Z" fill="#C0C41B"/>
    <path d="M15 26.9874L22.6594 24.7932L24.4613 3.93408H15V26.9874Z" fill="#FFE602"/>
    <path d="M9.771 20.17C8.84167 20.17 8.04833 20.0397 7.391 19.779V18.215C7.663 18.3283 7.98033 18.4247 8.343 18.504C8.717 18.572 9.08533 18.606 9.448 18.606C10.2073 18.606 10.7343 18.453 11.029 18.147C11.335 17.8297 11.488 17.3253 11.488 16.634V9.052H13.341V16.94C13.341 17.9827 13.0407 18.7817 12.44 19.337C11.8507 19.8923 10.961 20.17 9.771 20.17Z" fill="white"/>
    <path d="M7.391 19.779H6.391V20.4582L7.02237 20.7086L7.391 19.779ZM7.391 18.215L7.77562 17.2919L6.391 16.715V18.215H7.391ZM8.343 18.504L8.1293 19.4809L8.14665 19.4847L8.16411 19.4879L8.343 18.504ZM11.029 18.147L10.3092 17.4529L10.3087 17.4534L11.029 18.147ZM11.488 9.052V8.052H10.488V9.052H11.488ZM13.341 9.052H14.341V8.052H13.341V9.052ZM12.44 19.337L11.7611 18.6027L11.7542 18.6092L12.44 19.337ZM9.771 19.17C8.9303 19.17 8.26913 19.0515 7.75963 18.8494L7.02237 20.7086C7.82754 21.0279 8.75304 21.17 9.771 21.17V19.17ZM8.391 19.779V18.215H6.391V19.779H8.391ZM7.00638 19.1381C7.34568 19.2794 7.72247 19.3919 8.1293 19.4809L8.5567 17.5271C8.23819 17.4574 7.98032 17.3772 7.77562 17.2919L7.00638 19.1381ZM8.16411 19.4879C8.59431 19.5661 9.02254 19.606 9.448 19.606V17.606C9.14813 17.606 8.83969 17.5779 8.52189 17.5201L8.16411 19.4879ZM9.448 19.606C10.2819 19.606 11.1631 19.4494 11.7493 18.8406L10.3087 17.4534C10.3131 17.4488 10.2774 17.4893 10.1339 17.5309C9.98826 17.5732 9.76663 17.606 9.448 17.606V19.606ZM11.7488 18.8411C12.3135 18.2555 12.488 17.4422 12.488 16.634H10.488C10.488 17.2084 10.3565 17.4038 10.3092 17.4529L11.7488 18.8411ZM12.488 16.634V9.052H10.488V16.634H12.488ZM11.488 10.052H13.341V8.052H11.488V10.052ZM12.341 9.052V16.94H14.341V9.052H12.341ZM12.341 16.94C12.341 17.7852 12.1041 18.2856 11.7611 18.6027L13.1189 20.0713C13.9772 19.2777 14.341 18.1801 14.341 16.94H12.341ZM11.7542 18.6092C11.4215 18.9227 10.8243 19.17 9.771 19.17V21.17C11.0977 21.17 12.2798 20.862 13.1258 20.0648L11.7542 18.6092Z" fill="black"/>
    <path d="M19.128 20.16C17.7947 20.16 16.7227 19.9893 15.912 19.648V18.112C16.3707 18.2827 16.8613 18.4213 17.384 18.528C17.9173 18.6347 18.4453 18.688 18.968 18.688C19.7893 18.688 20.4027 18.592 20.808 18.4C21.224 18.208 21.432 17.824 21.432 17.248C21.432 16.896 21.3467 16.6133 21.176 16.4C21.0053 16.1867 20.7227 16.0053 20.328 15.856C19.9333 15.696 19.3893 15.5307 18.696 15.36C17.5867 15.072 16.808 14.7093 16.36 14.272C15.912 13.824 15.688 13.2107 15.688 12.432C15.688 11.5253 16.0187 10.816 16.68 10.304C17.3413 9.792 18.328 9.536 19.64 9.536C20.2373 9.536 20.7973 9.57867 21.32 9.664C21.8533 9.74933 22.2693 9.84533 22.568 9.952V11.488C21.7573 11.1787 20.8613 11.024 19.88 11.024C19.112 11.024 18.5147 11.1253 18.088 11.328C17.6613 11.5307 17.448 11.8987 17.448 12.432C17.448 12.7413 17.5227 12.992 17.672 13.184C17.8213 13.376 18.0773 13.5413 18.44 13.68C18.8133 13.8187 19.3253 13.9733 19.976 14.144C20.8187 14.3573 21.4693 14.6133 21.928 14.912C22.3973 15.2 22.7227 15.5413 22.904 15.936C23.096 16.32 23.192 16.7573 23.192 17.248C23.192 18.1547 22.856 18.8693 22.184 19.392C21.512 19.904 20.4933 20.16 19.128 20.16Z" fill="white"/>
    <path d="M15.912 19.648H14.912V20.312L15.5239 20.5696L15.912 19.648ZM15.912 18.112L16.2607 17.1748L14.912 16.6729V18.112H15.912ZM17.384 18.528L17.184 19.5078L17.1879 19.5086L17.384 18.528ZM20.808 18.4L20.3889 17.492L20.3799 17.4963L20.808 18.4ZM20.328 15.856L19.9523 16.7827L19.9632 16.7871L19.9741 16.7913L20.328 15.856ZM18.696 15.36L18.4447 16.328L18.457 16.331L18.696 15.36ZM16.36 14.272L15.6528 14.9792L15.6615 14.9876L16.36 14.272ZM16.68 10.304L17.2922 11.0947L17.2922 11.0947L16.68 10.304ZM21.32 9.664L21.1589 10.6509L21.162 10.6514L21.32 9.664ZM22.568 9.952H23.568V9.24728L22.9043 9.01026L22.568 9.952ZM22.568 11.488L22.2115 12.4223L23.568 12.9399V11.488H22.568ZM18.088 11.328L17.6589 10.4247L17.6589 10.4247L18.088 11.328ZM18.44 13.68L18.0828 14.6141L18.0918 14.6174L18.44 13.68ZM19.976 14.144L19.7223 15.1113L19.7306 15.1134L19.976 14.144ZM21.928 14.912L21.3823 15.75L21.3936 15.7573L21.405 15.7643L21.928 14.912ZM22.904 15.936L21.9953 16.3535L22.0022 16.3685L22.0096 16.3832L22.904 15.936ZM22.184 19.392L22.7901 20.1875L22.7979 20.1814L22.184 19.392ZM19.128 19.16C17.8659 19.16 16.9413 18.9964 16.3001 18.7264L15.5239 20.5696C16.504 20.9823 17.7234 21.16 19.128 21.16V19.16ZM16.912 19.648V18.112H14.912V19.648H16.912ZM15.5633 19.0492C16.0744 19.2394 16.6152 19.3917 17.184 19.5078L17.584 17.5482C17.1074 17.4509 16.6669 17.3259 16.2607 17.1748L15.5633 19.0492ZM17.1879 19.5086C17.7832 19.6276 18.3769 19.688 18.968 19.688V17.688C18.5138 17.688 18.0515 17.6417 17.5801 17.5474L17.1879 19.5086ZM18.968 19.688C19.8342 19.688 20.6275 19.592 21.2361 19.3037L20.3799 17.4963C20.1778 17.592 19.7445 17.688 18.968 17.688V19.688ZM21.2271 19.308C21.6207 19.1263 21.9432 18.8358 22.1553 18.4443C22.3598 18.0668 22.432 17.6511 22.432 17.248H20.432C20.432 17.4209 20.4002 17.4852 20.3967 17.4917C20.3955 17.4939 20.3977 17.4899 20.4027 17.4852C20.4074 17.4809 20.4055 17.4844 20.3889 17.492L21.2271 19.308ZM22.432 17.248C22.432 16.7353 22.3059 16.2116 21.9569 15.7753L20.3951 17.0247C20.3956 17.0253 20.3971 17.0272 20.3994 17.0316C20.4018 17.0363 20.406 17.0455 20.4107 17.061C20.4202 17.0926 20.432 17.1517 20.432 17.248H22.432ZM21.9569 15.7753C21.6292 15.3657 21.1605 15.1018 20.6819 14.9207L19.9741 16.7913C20.2849 16.9089 20.3815 17.0076 20.3951 17.0247L21.9569 15.7753ZM20.7037 14.9293C20.2449 14.7433 19.6483 14.5646 18.935 14.389L18.457 16.331C19.1304 16.4968 19.6218 16.6487 19.9523 16.7827L20.7037 14.9293ZM18.9473 14.3921C17.8875 14.1169 17.3165 13.8082 17.0585 13.5564L15.6615 14.9876C16.2995 15.6104 17.2859 16.0271 18.4447 16.3279L18.9473 14.3921ZM17.0671 13.5649C16.8478 13.3456 16.688 13.01 16.688 12.432H14.688C14.688 13.4114 14.9762 14.3024 15.6529 14.9791L17.0671 13.5649ZM16.688 12.432C16.688 11.8047 16.8982 11.3997 17.2922 11.0947L16.0678 9.51328C15.1391 10.2323 14.688 11.2459 14.688 12.432H16.688ZM17.2922 11.0947C17.7035 10.7763 18.4315 10.536 19.64 10.536V8.536C18.2245 8.536 16.9792 8.80771 16.0678 9.51328L17.2922 11.0947ZM19.64 10.536C20.1901 10.536 20.6957 10.5753 21.1589 10.6509L21.4811 8.67707C20.899 8.58202 20.2846 8.536 19.64 8.536V10.536ZM21.162 10.6514C21.6705 10.7328 22.0173 10.8172 22.2317 10.8937L22.9043 9.01026C22.5214 8.87349 22.0361 8.76586 21.478 8.67656L21.162 10.6514ZM21.568 9.952V11.488H23.568V9.952H21.568ZM22.9245 10.5537C21.9861 10.1956 20.9673 10.024 19.88 10.024V12.024C20.7553 12.024 21.5286 12.1617 22.2115 12.4223L22.9245 10.5537ZM19.88 10.024C19.0456 10.024 18.278 10.1307 17.6589 10.4247L18.5171 12.2313C18.7513 12.12 19.1784 12.024 19.88 12.024V10.024ZM17.6589 10.4247C17.284 10.6028 16.962 10.8764 16.7429 11.2545C16.5281 11.625 16.448 12.0333 16.448 12.432H18.448C18.448 12.3648 18.4548 12.3202 18.4611 12.2933C18.4672 12.2675 18.473 12.2577 18.4731 12.2575C18.4734 12.2571 18.4732 12.2575 18.4727 12.2581C18.4721 12.2588 18.4722 12.2586 18.4735 12.2574C18.4758 12.2554 18.4876 12.2453 18.5171 12.2313L17.6589 10.4247ZM16.448 12.432C16.448 12.9024 16.5634 13.3875 16.8826 13.7979L18.4614 12.5701C18.4685 12.5793 18.467 12.5818 18.4624 12.5665C18.4571 12.5489 18.448 12.5071 18.448 12.432H16.448ZM16.8826 13.7979C17.1923 14.196 17.6418 14.4454 18.0829 14.6141L18.7971 12.7459C18.664 12.695 18.5748 12.6483 18.5185 12.612C18.4621 12.5755 18.4521 12.5582 18.4614 12.5701L16.8826 13.7979ZM18.0918 14.6174C18.51 14.7727 19.0582 14.9371 19.7223 15.1113L20.2297 13.1767C19.5925 13.0096 19.1167 12.8646 18.7882 12.7426L18.0918 14.6174ZM19.7306 15.1134C20.5217 15.3137 21.0537 15.536 21.3823 15.75L22.4737 14.074C21.885 13.6907 21.1157 13.401 20.2214 13.1746L19.7306 15.1134ZM21.405 15.7643C21.7506 15.9764 21.9163 16.1815 21.9953 16.3535L23.8127 15.5185C23.5291 14.9012 23.044 14.4236 22.451 14.0597L21.405 15.7643ZM22.0096 16.3832C22.1228 16.6097 22.192 16.8903 22.192 17.248H24.192C24.192 16.6244 24.0692 16.0303 23.7984 15.4888L22.0096 16.3832ZM22.192 17.248C22.192 17.8693 21.9807 18.2832 21.5701 18.6026L22.7979 20.1814C23.7313 19.4554 24.192 18.4401 24.192 17.248H22.192ZM21.578 18.5966C21.1584 18.9162 20.399 19.16 19.128 19.16V21.16C20.5877 21.16 21.8656 20.8918 22.79 20.1874L21.578 18.5966Z" fill="black"/>
</svg>
