<svg width="35" height="35" viewBox="0 0 30 30" fill="none" xmlns="http://www.w3.org/2000/svg">
    <path fill-rule="evenodd" clip-rule="evenodd" d="M8.23594 6.43593C7.9876 6.43514 7.74021 6.46665 7.5 6.52968V6.56249H7.53563C7.70767 6.82219 7.89948 7.06823 8.10937 7.29843C8.25375 7.5853 8.37937 7.87124 8.52281 8.15811C8.54062 8.1403 8.55844 8.12155 8.55844 8.12155C8.69162 8.01584 8.79585 7.87811 8.86143 7.72123C8.927 7.56435 8.95177 7.39341 8.93344 7.22437C8.85492 7.1033 8.78295 6.97812 8.71781 6.84937C8.61 6.6703 8.37656 6.5803 8.23312 6.43687" fill="white"/>
    <path fill-rule="evenodd" clip-rule="evenodd" d="M26.0438 22.081C24.8612 21.9979 23.6745 22.1692 22.5638 22.5835C22.2947 22.6913 21.8653 22.6913 21.8278 23.0316C21.9722 23.175 21.9891 23.4066 22.1156 23.6063C22.3612 24.022 22.6768 24.3921 23.0485 24.7003C23.4235 24.9872 23.7985 25.2731 24.1969 25.5244C24.8953 25.9566 25.6856 26.2069 26.3663 26.6372C26.7619 26.8885 27.1556 27.211 27.5513 27.481C27.7481 27.6244 27.8728 27.856 28.1241 27.9497V27.8953C28.0503 27.6961 27.959 27.5038 27.8513 27.3206C27.6722 27.1425 27.4922 26.9803 27.3122 26.8013C26.7863 26.1059 26.1572 25.4951 25.4466 24.99C24.8719 24.5944 23.6156 24.0525 23.3841 23.3963L23.3475 23.3597C23.768 23.3001 24.1825 23.2035 24.586 23.071C25.1953 22.9097 25.7513 22.9463 26.3785 22.7897C26.6663 22.7175 27.1866 22.5385 27.1866 22.5385V22.2572C26.866 21.9385 26.6363 21.5119 26.2988 21.211C25.3806 20.4094 24.4021 19.6798 23.3719 19.0285C22.8216 18.6731 22.1119 18.4444 21.526 18.1416C21.3141 18.0347 20.9635 17.9822 20.835 17.8041C20.5436 17.3766 20.2997 16.9185 20.1075 16.4381C19.5938 15.4631 19.096 14.3822 18.6535 13.351C18.3915 12.6598 18.0895 11.9846 17.7488 11.3288C16.1047 8.53358 13.7316 6.23796 10.8835 4.68752C10.1648 4.33966 9.40074 4.09476 8.61377 3.96002C8.1694 3.94127 7.7269 3.90658 7.28346 3.88971C6.99721 3.70217 6.72493 3.49413 6.46877 3.2672C5.4544 2.62502 2.84815 1.24502 2.1019 3.0722C1.62377 4.22627 2.81252 5.36064 3.22034 5.94658C3.5642 6.35972 3.86719 6.80525 4.12502 7.27689C4.24971 7.57877 4.28534 7.89845 4.40627 8.21439C4.66651 9.02543 4.97551 9.82 5.33159 10.5938C5.52203 10.9762 5.74142 11.3435 5.98784 11.6925C6.13127 11.8885 6.37877 11.9738 6.43221 12.2972C6.2356 12.7198 6.09806 13.1674 6.02346 13.6275C5.71357 14.6062 5.59952 15.6363 5.68783 16.659C5.77614 17.6818 6.06508 18.6771 6.53815 19.5881C6.8194 20.0316 7.49627 21.0075 8.40096 20.6344C9.19877 20.3156 9.02159 19.3041 9.25221 18.4181C9.30471 18.2035 9.27002 18.0628 9.37596 17.9213V18.0938C9.37596 18.0938 9.82877 19.0885 10.0538 19.5938C10.6657 20.521 11.4258 21.3413 12.3038 22.0219C12.6511 22.3251 12.9308 22.6978 13.125 23.116V23.4375H13.5253C13.517 23.2925 13.4768 23.1512 13.4076 23.0235C13.3384 22.8958 13.2419 22.7849 13.125 22.6988C12.7968 22.3609 12.4961 21.9972 12.226 21.6113C11.4921 20.5661 10.845 19.4628 10.291 18.3122C10.0097 17.7497 9.77252 17.1328 9.54752 16.5713C9.4444 16.3547 9.4444 16.0275 9.27096 15.915C8.95071 16.2939 8.67281 16.7067 8.44221 17.146C8.16227 18.0338 7.99933 18.9544 7.95752 19.8844C7.88909 19.9031 7.92284 19.8844 7.88909 19.92C7.3369 19.7747 7.14659 19.1775 6.93846 18.6713C6.40081 17.1099 6.34658 15.4227 6.78284 13.83C6.90284 13.4503 7.42315 12.2541 7.21502 11.8913C7.11096 11.5453 6.76502 11.3475 6.57565 11.0747C6.33389 10.7077 6.12585 10.3195 5.95409 9.91502C5.54252 8.90627 5.3344 7.78127 4.88627 6.76502C4.63821 6.27626 4.34937 5.8093 4.02284 5.36908C3.66163 4.92933 3.34301 4.45627 3.07127 3.95627C2.98502 3.75658 2.86409 3.43033 3.0019 3.21283C3.0112 3.15241 3.03993 3.09667 3.08374 3.05404C3.12756 3.01142 3.18406 2.98422 3.24471 2.97658C3.46784 2.77783 4.10815 3.03096 4.33221 3.13971C4.93442 3.37678 5.50803 3.68088 6.04221 4.04627C6.28409 4.22814 6.85409 4.68845 6.85409 4.68845H7.02284C7.59659 4.81314 8.24159 4.72314 8.78159 4.88533C9.6908 5.18842 10.5585 5.60415 11.3644 6.12283C13.7397 7.63703 15.6707 9.75439 16.9603 12.2588C17.176 12.6703 17.2669 13.0481 17.4638 13.4775C17.8388 14.3588 18.3075 15.2588 18.6825 16.1156C19.0133 16.9634 19.4412 17.77 19.9575 18.5194C20.2256 18.8944 21.3028 19.0931 21.7875 19.29C22.2084 19.4356 22.6215 19.603 23.025 19.7916C23.6353 20.1666 24.2438 20.5988 24.8185 21.0103C25.1044 21.226 26.0016 21.6741 26.056 22.0331" fill="white"/>
</svg>
