<svg width="30" height="30" viewBox="0 0 30 30" fill="none" xmlns="http://www.w3.org/2000/svg">
<g clip-path="url(#clip0_332_115)">
<path d="M17.6638 0.0587769C17.4475 0.0587769 17.2463 0.105027 17.06 0.167527C17.455 0.430027 17.6725 0.780027 17.78 1.17503C17.7888 1.22878 17.8038 1.26753 17.8113 1.32128C17.8206 1.36741 17.826 1.41424 17.8275 1.46128C17.8575 2.14253 17.6488 2.22878 17.5025 2.63128C17.2775 3.15003 17.34 3.70753 17.61 4.15628C17.6348 4.21645 17.6658 4.27385 17.7025 4.32753C17.4088 2.36753 19.0438 2.07378 19.345 1.46128C19.3688 0.926277 18.9275 0.570027 18.5788 0.322527C18.3047 0.150313 17.9875 0.0592965 17.6638 0.0600269V0.0587769ZM20.1275 0.500027C20.0975 0.678777 20.12 0.632527 20.1125 0.725027C20.105 0.787527 20.105 0.865027 20.0975 0.926277C20.0813 0.988777 20.0663 1.05128 20.0425 1.11253C20.0275 1.17503 20.005 1.23753 19.98 1.29878L19.8963 1.47628C19.8713 1.50753 19.8575 1.53878 19.8338 1.57003L19.7875 1.63878C19.7507 1.69182 19.7119 1.74352 19.6713 1.79378C19.625 1.84128 19.5863 1.89503 19.5313 1.93378V1.94128C19.485 1.98003 19.4388 2.02628 19.3838 2.06628C19.2213 2.19003 19.0363 2.28253 18.865 2.39878C18.8113 2.43628 18.7563 2.46878 18.71 2.51503C18.6575 2.55201 18.6081 2.59341 18.5625 2.63878C18.5088 2.68503 18.47 2.73128 18.4238 2.78628C18.385 2.83253 18.3388 2.88628 18.3075 2.94128C18.2686 2.99362 18.2323 3.04785 18.1988 3.10378C18.1675 3.16628 18.145 3.22003 18.1138 3.28128C18.09 3.34378 18.0675 3.39753 18.0513 3.46003C18.0308 3.52387 18.0129 3.5885 17.9975 3.65378C17.99 3.68503 17.99 3.72378 17.9825 3.75378C17.9738 3.78503 17.9738 3.81628 17.9663 3.84753C17.9663 3.91003 17.9588 3.97878 17.9588 4.04128C17.9588 4.08753 17.9588 4.13378 17.9663 4.18003C17.9663 4.24253 17.9738 4.30503 17.99 4.37378C17.9975 4.43628 18.0125 4.49878 18.0275 4.56128C18.0525 4.62253 18.0675 4.68378 18.09 4.74628C18.1063 4.78378 18.1288 4.82378 18.145 4.85503L16.3625 4.16503C16.0613 4.08003 15.7663 4.00253 15.4638 3.93253L14.9763 3.81628C14.5113 3.72378 14.0388 3.65378 13.5663 3.60753C13.55 3.60753 13.5425 3.60003 13.5275 3.60003C12.7291 3.52005 11.9253 3.50959 11.125 3.56878C10.6525 3.60003 10.18 3.66128 9.70755 3.73878C9.35641 3.79928 9.00745 3.87182 8.6613 3.95628L8.31255 4.04878C8.19755 4.09503 8.08755 4.14878 7.98005 4.19628L7.7238 4.31253C7.7088 4.32003 7.6938 4.32003 7.6863 4.32753C7.60755 4.36628 7.5388 4.39753 7.4688 4.43628C7.36815 4.48067 7.2697 4.5299 7.1738 4.58378C7.12005 4.60628 7.0663 4.63753 7.0188 4.66128C6.9966 4.67505 6.97365 4.68757 6.95005 4.69878C6.88005 4.73878 6.81005 4.77753 6.74755 4.81628C6.68375 4.85154 6.62199 4.89035 6.56255 4.93253C6.50755 4.97003 6.4538 5.00128 6.40755 5.04003C6.40005 5.04878 6.3913 5.04878 6.3838 5.05628C6.33755 5.08753 6.2838 5.12628 6.2363 5.16503L6.2213 5.18003L6.10505 5.27253C6.09005 5.28128 6.0738 5.29628 6.0588 5.30378C6.02005 5.33503 5.9813 5.37378 5.94255 5.40378C5.93505 5.42003 5.9188 5.42878 5.9113 5.43503C5.86505 5.48253 5.8188 5.52128 5.77255 5.56753C5.7638 5.56753 5.7638 5.57503 5.7563 5.58253C5.70812 5.62463 5.66183 5.66884 5.61755 5.71503C5.6088 5.72253 5.6088 5.73003 5.6013 5.73003C5.56061 5.76985 5.52182 5.81156 5.48505 5.85503C5.47005 5.87003 5.44755 5.88503 5.4313 5.90003C5.38978 5.94914 5.34555 5.99588 5.2988 6.04003C5.2913 6.05503 5.2763 6.06378 5.2688 6.07753C5.2063 6.14003 5.15255 6.20253 5.09005 6.26503L5.06755 6.28753C4.94255 6.42003 4.8113 6.55128 4.6713 6.66753C4.53255 6.79253 4.38505 6.90753 4.23755 7.00878C3.94139 7.22032 3.62177 7.39691 3.28505 7.53503C3.12255 7.60503 2.9513 7.66753 2.7813 7.72128C2.4563 7.79128 2.12255 7.92253 1.8363 7.94628C1.7738 7.94628 1.70505 7.96128 1.64255 7.96878L1.4488 8.01503L1.26255 8.08503C1.20005 8.10878 1.1388 8.14003 1.07755 8.17003C1.02255 8.20878 0.961297 8.24003 0.906297 8.27878C0.851145 8.3187 0.79931 8.36301 0.751297 8.41128C0.697547 8.44878 0.642547 8.50378 0.596297 8.55003C0.550047 8.60378 0.503797 8.65003 0.465047 8.70503C0.426297 8.76753 0.380047 8.82128 0.348797 8.88378C0.308081 8.94009 0.271726 8.99943 0.240047 9.06128C0.208797 9.13128 0.177547 9.19378 0.155047 9.26253C0.131297 9.32503 0.108797 9.39503 0.0850467 9.46378C0.0700467 9.52628 0.0537967 9.58878 0.0475467 9.65128C0.0475467 9.65753 0.0387967 9.66628 0.0387967 9.67378C0.0237967 9.74378 0.0237967 9.83628 0.0150467 9.88253C0.00754674 9.93753 4.67428e-05 9.98253 4.67428e-05 10.0375C-0.0013914 10.1723 0.0303766 10.3054 0.0925467 10.425V10.4325C0.116297 10.4788 0.147547 10.5263 0.178797 10.5725C0.208797 10.6188 0.241297 10.665 0.278797 10.7113C0.317547 10.75 0.363797 10.7975 0.411297 10.8363C0.456464 10.8816 0.505389 10.923 0.557547 10.96C0.743797 11.1225 0.790047 11.1763 1.03005 11.3C1.0688 11.3238 1.10755 11.3388 1.15505 11.3625C1.16255 11.3625 1.17005 11.37 1.17755 11.37C1.17755 11.3863 1.17755 11.3938 1.18505 11.4088C1.20314 11.5365 1.23672 11.6616 1.28505 11.7813C1.31005 11.8275 1.32505 11.8738 1.34755 11.92C1.3563 11.9363 1.3638 11.9513 1.37255 11.9588C1.40255 12.0213 1.4338 12.075 1.4638 12.13L1.58005 12.2925C1.6188 12.3388 1.6663 12.3925 1.71255 12.44C1.7588 12.4863 1.80505 12.525 1.86005 12.5713C1.86005 12.5713 1.86755 12.5788 1.87505 12.5788C1.9213 12.6175 1.96755 12.6563 2.01505 12.6875C2.06895 12.7253 2.1258 12.7588 2.18505 12.7875C2.2388 12.8188 2.3013 12.85 2.36255 12.8738C2.41249 12.8963 2.46437 12.9143 2.51755 12.9275C2.5263 12.935 2.5338 12.935 2.5488 12.9425C2.58005 12.9513 2.6188 12.9588 2.6488 12.9663C2.6263 13.385 2.6188 13.7788 2.6813 13.9188C2.75005 14.0738 3.0913 13.6013 3.4313 13.0588C3.3863 13.5938 3.35505 14.2213 3.4313 14.4075C3.51755 14.6013 3.9813 13.9963 4.38505 13.33C9.8788 12.06 14.8913 15.855 15.4175 21.2175C15.3175 20.38 14.2863 19.9163 13.8138 20.0325C13.5813 20.605 13.1863 21.3413 12.5513 21.7988C12.605 21.2863 12.5825 20.7613 12.4738 20.2488C12.3003 20.9622 11.9721 21.6287 11.5125 22.2013C10.7775 22.255 10.0413 21.8988 9.6538 21.3638C9.62255 21.3413 9.61505 21.295 9.5913 21.2638C9.5688 21.21 9.54505 21.155 9.5288 21.1013C9.50631 21.0494 9.49076 20.9947 9.48255 20.9388C9.47505 20.8838 9.47505 20.83 9.47505 20.7675V20.6513C9.48429 20.5963 9.49724 20.542 9.5138 20.4888C9.53005 20.435 9.54505 20.3813 9.5688 20.3263C9.5988 20.2725 9.62255 20.2175 9.6613 20.1638C9.79255 19.7913 9.79255 19.4888 9.55255 19.3113C9.50593 19.2808 9.45655 19.2549 9.40505 19.2338C9.37505 19.2263 9.3363 19.2113 9.30505 19.2025L9.24255 19.18C9.18948 19.1628 9.13515 19.1499 9.08005 19.1413C9.02725 19.1258 8.97255 19.1178 8.91755 19.1175C8.86128 19.1087 8.80449 19.1037 8.74755 19.1025C8.7088 19.1025 8.67005 19.11 8.6313 19.11C8.57337 19.1097 8.5157 19.1177 8.46005 19.1338C8.4063 19.1413 8.35255 19.1488 8.29755 19.1638C8.24226 19.1786 8.18798 19.197 8.13505 19.2188C8.0813 19.2413 8.03505 19.265 7.98005 19.2888C7.9338 19.3113 7.88755 19.3425 7.83255 19.3663C6.02755 20.5438 7.10505 23.3013 8.3363 24.1C7.8713 24.185 7.3988 24.285 7.26755 24.3863L7.2513 24.4013C7.58505 24.6025 7.9338 24.7738 8.29755 24.9213C8.7938 25.0838 9.32005 25.23 9.55255 25.2925V25.3C10.1945 25.4318 10.8509 25.4789 11.505 25.44C14.9375 25.2 17.75 22.5888 18.2613 19.1488L18.3075 19.35C18.3313 19.49 18.3613 19.6375 18.3775 19.7838V19.7913C18.3925 19.8613 18.4 19.9313 18.4088 19.9938V20.0238C18.4163 20.0938 18.4238 20.1638 18.4238 20.2263C18.4313 20.3113 18.4388 20.3963 18.4388 20.4813V20.6063C18.4388 20.6438 18.4475 20.69 18.4475 20.7288C18.4475 20.7763 18.4388 20.8225 18.4388 20.8688V20.9775C18.4388 21.0313 18.4313 21.0775 18.4313 21.1325C18.4313 21.1638 18.4313 21.195 18.4238 21.2325C18.4238 21.2875 18.4163 21.3413 18.4163 21.4038C18.4088 21.4263 18.4088 21.45 18.4088 21.4725L18.3838 21.6513C18.3838 21.675 18.3838 21.6975 18.3775 21.7213C18.3688 21.7988 18.3538 21.8688 18.3463 21.9463V21.9613L18.3 22.1788V22.2013L18.2538 22.41C18.2538 22.4188 18.245 22.435 18.245 22.4413C18.2308 22.5122 18.2129 22.5823 18.1913 22.6513V22.6738C18.1675 22.7513 18.145 22.8213 18.1288 22.8913C18.1213 22.8988 18.1213 22.9063 18.1213 22.9063L18.0513 23.1388C18.0213 23.2163 17.9975 23.2863 17.9663 23.3638C17.935 23.4413 17.9125 23.5188 17.8813 23.5888C17.85 23.6663 17.8188 23.735 17.7888 23.8138H17.78C17.75 23.8825 17.7175 23.96 17.68 24.03C17.6735 24.0485 17.6656 24.0665 17.6563 24.0838C17.6488 24.0913 17.6488 24.1 17.6413 24.1075C17.1289 25.1333 16.3831 26.0247 15.4638 26.71C15.4013 26.7488 15.34 26.7963 15.2775 26.8425C15.2625 26.8575 15.24 26.865 15.2238 26.88C15.1684 26.921 15.1117 26.9602 15.0538 26.9975L15.0763 27.0438H15.085L15.41 26.9975H15.4175C15.6188 26.9663 15.82 26.9275 16.0213 26.8888C16.0763 26.8813 16.1375 26.865 16.1925 26.85L16.3013 26.8263C16.355 26.8188 16.4088 26.8038 16.4638 26.7963C16.51 26.78 16.5563 26.7713 16.6025 26.7575C17.3775 26.57 18.1288 26.315 18.85 26.0138C17.6048 27.7098 15.9488 29.0613 14.0375 29.9413C14.93 29.8788 15.82 29.7325 16.68 29.4838C19.7928 28.5686 22.4218 26.4679 24.0013 23.6338C23.6823 25.4278 22.9707 27.1292 21.9175 28.6163C22.6684 28.121 23.3622 27.5441 23.9863 26.8963C25.7205 25.0858 26.859 22.7878 27.2488 20.3113C27.5113 21.5363 27.5888 22.7988 27.4738 24.045C33.0663 16.2438 27.9375 8.15503 25.7913 6.02503C25.7838 6.00878 25.7763 6.00128 25.7763 5.98628C25.7688 5.99378 25.7688 5.99378 25.7688 6.00128C25.7688 5.99378 25.7688 5.99378 25.76 5.98628C25.76 6.07878 25.7525 6.17128 25.745 6.26503C25.7236 6.43857 25.6977 6.61154 25.6675 6.78378C25.63 6.95378 25.5825 7.12503 25.5363 7.29628C25.4813 7.45878 25.42 7.62878 25.3488 7.79128C25.278 7.95176 25.2008 8.10939 25.1175 8.26378C24.9446 8.56749 24.745 8.85528 24.5213 9.12378C24.405 9.26253 24.2813 9.38628 24.1563 9.51128C24.0832 9.57808 24.0082 9.64269 23.9313 9.70503L23.7538 9.86003C23.6155 9.96919 23.4706 10.0698 23.32 10.1613C23.172 10.2566 23.0193 10.3447 22.8625 10.425C22.7 10.5025 22.5375 10.5725 22.375 10.6425C22.0441 10.7684 21.7016 10.8618 21.3525 10.9213C21.1738 10.9525 20.9963 10.9675 20.825 10.9838C20.7015 10.9925 20.5777 10.9975 20.4538 10.9988C20.2776 10.9963 20.1016 10.9859 19.9263 10.9675C19.7493 10.9536 19.5735 10.9277 19.4 10.89C19.2243 10.8581 19.051 10.8143 18.8813 10.7588H18.8725C19.0438 10.7425 19.2138 10.7275 19.385 10.6963C19.7339 10.6358 20.0763 10.5425 20.4075 10.4175C20.5775 10.355 20.74 10.2775 20.895 10.2C21.0575 10.1225 21.205 10.0375 21.36 9.94503C21.5075 9.84503 21.6538 9.74378 21.7938 9.63503C21.9338 9.52628 22.065 9.41003 22.1888 9.28628C22.32 9.17003 22.4363 9.03878 22.5525 8.90628C22.6688 8.76753 22.7775 8.62753 22.8775 8.48878C22.8938 8.46503 22.91 8.43378 22.925 8.41128C23.0025 8.28628 23.08 8.16253 23.15 8.03878C23.3208 7.73043 23.4607 7.40593 23.5675 7.07003C23.6225 6.90753 23.6613 6.73753 23.7 6.56628C23.7313 6.38878 23.7625 6.21878 23.7775 6.04753C23.7925 5.87003 23.8088 5.69128 23.8088 5.52128C23.8088 5.39628 23.8 5.27253 23.7925 5.14878C23.7771 4.97525 23.7562 4.80225 23.73 4.63003C23.6999 4.45539 23.6615 4.28228 23.615 4.11128C23.56 3.94878 23.5063 3.77753 23.4438 3.61503C23.3813 3.45253 23.305 3.29003 23.2275 3.13503C23.1413 2.98003 23.0563 2.82503 22.9638 2.67753C22.8648 2.53272 22.7615 2.39098 22.6538 2.25253C22.5375 2.12003 22.4213 1.98753 22.2975 1.85628C22.2323 1.78977 22.1652 1.72516 22.0963 1.66253C21.7463 1.39128 21.3838 1.13628 21.0188 0.903777C20.9687 0.87486 20.917 0.84898 20.8638 0.826277C20.634 0.685569 20.3864 0.576264 20.1275 0.501277V0.500027Z" fill="white"/>
</g>
<defs>
<clipPath id="clip0_332_115">
<rect width="30" height="30" fill="white"/>
</clipPath>
</defs>
</svg>
