<svg width="30" height="30" viewBox="0 0 30 30" fill="none" xmlns="http://www.w3.org/2000/svg">
    <g clip-path="url(#clip0_331_83)">
    <path d="M0.5 7.00002C12.1699 -2.38117 18.2137 -2.22627 29 7.00002V23C18.0789 33.2112 11.8295 33.0629 0.5 23V7.00002Z" fill="white"/>
    <path d="M13.777 0.380865C14.5177 -0.0430707 15.4823 -0.0449856 16.2223 0.380865C19.9452 2.48448 23.6693 4.5848 27.3915 6.6897C28.0916 7.08406 28.5599 7.86321 28.5528 8.66991V21.3261C28.558 22.1662 28.0434 22.9639 27.3048 23.3494C23.5942 25.4414 19.8854 27.536 16.1754 29.628C15.4195 30.0602 14.4354 30.0269 13.7031 29.5593C12.5906 28.9144 11.4763 28.2727 10.3637 27.6284C10.1364 27.4929 9.88011 27.385 9.71958 27.1646C9.86149 26.9733 10.1152 26.9495 10.3214 26.866C10.7857 26.7183 11.2122 26.4813 11.6388 26.2513C11.7467 26.1775 11.8784 26.2058 11.9818 26.2718C12.9331 26.8172 13.876 27.3785 14.8304 27.9187C15.034 28.0363 15.2402 27.8802 15.4143 27.7832C19.0555 25.7252 22.7013 23.675 26.3419 21.6164C26.4768 21.5515 26.5514 21.4083 26.5404 21.2605C26.543 17.0855 26.5411 12.9098 26.5417 8.7348C26.5571 8.56714 26.4601 8.41299 26.3085 8.34438C22.6107 6.26193 18.9149 4.17629 15.2178 2.09331C15.1537 2.04928 15.0778 2.02565 15.0001 2.02553C14.9224 2.02542 14.8464 2.04882 14.7822 2.09267C11.0851 4.17629 7.38989 6.26384 3.69277 8.34619C3.5417 8.41491 3.44032 8.5665 3.4583 8.7348C3.45894 12.9098 3.4583 17.0855 3.4583 21.2612C3.45189 21.3333 3.46772 21.4056 3.50367 21.4684C3.53962 21.5313 3.59396 21.5816 3.65936 21.6126C4.64596 22.172 5.63383 22.7276 6.62107 23.2851C7.17724 23.5845 7.86011 23.7624 8.47287 23.533C9.01362 23.3391 9.39266 22.7872 9.38234 22.2131C9.38745 18.0625 9.37979 13.9112 9.38617 9.76118C9.37266 9.57693 9.54745 9.4247 9.7266 9.44204C10.2006 9.43884 10.6753 9.43565 11.1494 9.44331C11.3472 9.43884 11.4834 9.63725 11.4589 9.82289C11.457 13.9998 11.464 18.1768 11.4557 22.3537C11.457 23.4669 10.9997 24.6782 9.97 25.2229C8.70149 25.88 7.13362 25.7407 5.88043 25.1105C4.79553 24.5691 3.76021 23.93 2.69458 23.3499C1.95404 22.9666 1.44202 22.1657 1.44724 21.3262V8.66991C1.43947 7.8465 1.92638 7.05321 2.6483 6.66459C6.3583 4.57087 10.0677 2.47555 13.777 0.380865Z" fill="#8CC84B"/>
    <path d="M17.0136 9.14788C18.6317 9.04373 20.3639 9.08618 21.82 9.88331C22.9473 10.4942 23.5723 11.7762 23.5922 13.0286C23.5607 13.1976 23.3841 13.2908 23.2229 13.2792C22.7534 13.2785 22.2838 13.2855 21.8144 13.276C21.6152 13.2836 21.4995 13.1 21.4745 12.9239C21.3396 12.3247 21.0128 11.7312 20.4487 11.4421C19.5829 11.0086 18.5789 11.0304 17.6348 11.0395C16.9455 11.0761 16.2044 11.1358 15.6204 11.5411C15.1721 11.8481 15.036 12.4679 15.196 12.967C15.3468 13.3254 15.7605 13.4411 16.099 13.5477C18.049 14.0577 20.1154 14.0069 22.0282 14.6781C22.8201 14.9517 23.5948 15.4836 23.8658 16.3128C24.2204 17.4241 24.065 18.7523 23.2744 19.6445C22.6332 20.3786 21.6994 20.7782 20.768 20.9952C19.5289 21.2715 18.2431 21.2785 16.9848 21.1559C15.8016 21.021 14.5703 20.7101 13.6569 19.9039C12.8758 19.2258 12.4944 18.1691 12.5322 17.1492C12.5413 16.9769 12.7128 16.8568 12.8778 16.871C13.3505 16.8671 13.8233 16.8659 14.2961 16.8716C14.4849 16.8581 14.6249 17.0213 14.6346 17.1993C14.7218 17.7702 14.9364 18.3695 15.4343 18.708C16.3951 19.3279 17.6007 19.2854 18.701 19.3028C19.6124 19.2623 20.6356 19.2501 21.3795 18.6477C21.7719 18.3041 21.8882 17.7292 21.7821 17.2346C21.6672 16.817 21.2304 16.6225 20.8553 16.4952C18.9303 15.8863 16.8408 16.1072 14.9345 15.4186C14.1605 15.1451 13.4121 14.628 13.1148 13.8329C12.6999 12.7076 12.89 11.3156 13.7635 10.4536C14.6152 9.59618 15.8447 9.26597 17.0136 9.14778V9.14788Z" fill="#8CC84B"/>
    </g>
    <defs>
    <clipPath id="clip0_331_83">
    <rect width="30" height="30" fill="white"/>
    </clipPath>
    </defs>
</svg>
