<svg width="35" height="35" viewBox="0 0 30 30" fill="none" xmlns="http://www.w3.org/2000/svg">
    <path d="M27.6629 17.5997C27.5837 17.3693 27.441 17.166 27.2512 17.0132C27.0615 16.8604 26.8324 16.7644 26.5904 16.7363C26.3045 16.7019 26.0147 16.7181 25.7344 16.7841C25.3009 16.8798 24.8599 16.9379 24.4163 16.9575C25.6025 14.9563 26.5084 12.8019 27.1088 10.5544C28.0022 7.09594 27.5251 5.52094 26.9672 4.8075C26.2265 3.87033 25.2784 3.11775 24.1977 2.60891C23.1169 2.10008 21.9328 1.84886 20.7385 1.875C19.6429 1.86474 18.5519 2.01767 17.5013 2.32875C16.8756 2.22148 16.2424 2.1638 15.6076 2.15625C14.4537 2.11245 13.3108 2.39411 12.3094 2.96907C11.55 2.7123 10.7713 2.51668 9.98068 2.38407C9.05904 2.16297 8.10287 2.12567 7.16682 2.27431C6.23076 2.42295 5.33318 2.7546 4.52537 3.25032C2.89974 4.39782 2.14599 6.39282 2.28568 9.18C2.53578 11.2593 2.97703 13.3111 3.6038 15.3094C3.96477 16.5576 4.4399 17.7699 5.02318 18.9309C5.45394 19.9901 6.27282 20.8449 7.31255 21.3206C7.69367 21.4462 8.10144 21.4676 8.49359 21.3825C8.88575 21.2975 9.24802 21.1091 9.54286 20.8369C9.67668 20.9953 9.83492 21.1314 10.0116 21.24C10.2855 21.41 10.584 21.5365 10.8966 21.615C11.9198 21.9 13.009 21.834 13.9904 21.4275C13.996 21.5878 14.0007 21.7416 14.0035 21.8747C14.0091 22.0894 14.0157 22.3003 14.0232 22.4981C14.012 23.5439 14.1513 24.5858 14.4366 25.5919C14.4516 25.6322 14.4713 25.6922 14.4919 25.7569C14.6566 26.3727 14.9765 26.9359 15.421 27.3928C15.9539 27.8822 16.6572 28.1436 17.3804 28.1213C17.6884 28.1193 17.9954 28.0851 18.2963 28.0191C18.8667 27.9475 19.417 27.7623 19.9147 27.4746C20.4124 27.1868 20.8474 26.8023 21.1941 26.3438C21.9544 25.2609 22.3247 23.6306 22.3913 21.0609C22.3997 20.9878 22.4082 20.9184 22.4157 20.8528L22.4316 20.7169L22.6107 20.7328H22.6566C23.6704 20.7758 24.6816 20.6006 25.6219 20.2191C26.2135 19.9444 28.1101 18.9431 27.6629 17.5941" fill="white"/>
    <path d="M25.9585 17.8622C22.9932 18.4734 22.7897 17.4703 22.7897 17.4703C25.9201 12.825 27.2288 6.92813 26.0991 5.48532C23.0185 1.54782 17.6851 3.41063 17.596 3.45844L17.5669 3.46407C16.9155 3.33333 16.2532 3.26427 15.5888 3.25782C14.4684 3.2016 13.3627 3.53263 12.4576 4.19532C12.4576 4.19532 2.94381 0.275629 3.38631 9.12469C3.48006 11.0072 6.08443 23.3691 9.19037 19.635C10.3257 18.27 11.4226 17.115 11.4226 17.115C11.975 17.4879 12.6396 17.6575 13.3032 17.595L13.3566 17.55C13.3409 17.7274 13.3482 17.906 13.3782 18.0816C12.5776 18.9759 12.8157 19.1325 11.2135 19.4616C9.59537 19.7953 10.546 20.3888 11.1666 20.5444C11.826 20.7577 12.536 20.7572 13.1951 20.5431C13.8542 20.3289 14.4288 19.912 14.8369 19.3519L14.7901 19.5394C15.1032 19.7906 15.3235 21.1725 15.2869 22.4259C15.1847 23.3582 15.2482 24.3011 15.4744 25.2113C15.7219 25.8834 15.9676 27.3947 18.0704 26.9447C18.8181 26.8708 19.5136 26.5279 20.0275 25.9797C20.5414 25.4315 20.8387 24.7153 20.8641 23.9644C20.9579 22.8075 21.1576 22.9781 21.1697 21.9441L21.3329 21.4547C21.5204 19.8863 21.3629 19.38 22.4447 19.6153L22.7082 19.6388C23.5452 19.6739 24.3803 19.5334 25.1597 19.2263C26.4779 18.615 27.2588 17.5931 25.9594 17.8622" fill="white"/>
    <mask id="path-3-inside-1_332_123" fill="white">
    <path d="M13.0143 9.96655C12.7993 9.9213 12.5751 9.95456 12.3824 10.0603C12.3573 10.0784 12.3361 10.1013 12.32 10.1277C12.3039 10.1541 12.2933 10.1835 12.2887 10.2141C12.2887 10.3222 12.3276 10.4267 12.3984 10.5084C12.5242 10.6812 12.712 10.7985 12.9224 10.8356C12.9504 10.8395 12.9786 10.8414 13.0068 10.8412C13.1461 10.8431 13.2826 10.802 13.3978 10.7237C13.513 10.6454 13.6013 10.5336 13.6509 10.4034C13.6837 10.1709 13.3453 10.0153 13.0171 9.96936M21.869 9.97686C21.8437 9.79405 21.5184 9.74249 21.2128 9.78936C20.9071 9.83624 20.6062 9.97124 20.6315 10.1541C20.6792 10.2687 20.7599 10.3666 20.8634 10.4353C20.967 10.5039 21.0886 10.5401 21.2128 10.5394C21.2388 10.5393 21.2648 10.5374 21.2906 10.5337C21.4532 10.5052 21.6018 10.4238 21.7134 10.3022C21.8067 10.2202 21.8637 10.1046 21.8718 9.98061"/>
    </mask>
    <path d="M13.0143 9.96655C12.7993 9.9213 12.5751 9.95456 12.3824 10.0603C12.3573 10.0784 12.3361 10.1013 12.32 10.1277C12.3039 10.1541 12.2933 10.1835 12.2887 10.2141C12.2887 10.3222 12.3276 10.4267 12.3984 10.5084C12.5242 10.6812 12.712 10.7985 12.9224 10.8356C12.9504 10.8395 12.9786 10.8414 13.0068 10.8412C13.1461 10.8431 13.2826 10.802 13.3978 10.7237C13.513 10.6454 13.6013 10.5336 13.6509 10.4034C13.6837 10.1709 13.3453 10.0153 13.0171 9.96936M21.869 9.97686C21.8437 9.79405 21.5184 9.74249 21.2128 9.78936C20.9071 9.83624 20.6062 9.97124 20.6315 10.1541C20.6792 10.2687 20.7599 10.3666 20.8634 10.4353C20.967 10.5039 21.0886 10.5401 21.2128 10.5394C21.2388 10.5393 21.2648 10.5374 21.2906 10.5337C21.4532 10.5052 21.6018 10.4238 21.7134 10.3022C21.8067 10.2202 21.8637 10.1046 21.8718 9.98061" fill="white"/>
    <path d="M12.3824 10.0603L11.9013 9.18366L11.8478 9.21303L11.7983 9.24868L12.3824 10.0603ZM12.2887 10.2141L11.2997 10.0664L11.2887 10.1399L11.2887 10.2142L12.2887 10.2141ZM12.3984 10.5084L13.2068 9.9198L13.1821 9.88588L13.1546 9.85414L12.3984 10.5084ZM12.9224 10.8356L12.7485 11.8204L12.7669 11.8236L12.7855 11.8262L12.9224 10.8356ZM13.0068 10.8412L13.0198 9.84132L13.0112 9.84121L13.0025 9.84125L13.0068 10.8412ZM13.6509 10.4034L14.5855 10.7592L14.6254 10.6543L14.6411 10.5432L13.6509 10.4034ZM20.6315 10.1541L19.641 10.2912L19.6586 10.4188L19.7081 10.5378L20.6315 10.1541ZM21.2128 10.5394L21.2109 9.53936L21.2066 9.53938L21.2128 10.5394ZM21.2906 10.5337L21.4326 11.5236L21.4481 11.5214L21.4636 11.5187L21.2906 10.5337ZM21.7134 10.3022L21.0535 9.55079L21.0131 9.58632L20.9766 9.626L21.7134 10.3022ZM13.2202 8.98798C12.7713 8.89352 12.3034 8.96294 11.9013 9.18366L12.8636 10.9369C12.8468 10.9462 12.8272 10.9491 12.8084 10.9451L13.2202 8.98798ZM11.7983 9.24868C11.6648 9.34477 11.5519 9.46664 11.4662 9.60708L13.1738 10.6483C13.1204 10.7359 13.0499 10.812 12.9666 10.8719L11.7983 9.24868ZM11.4662 9.60708C11.3806 9.74752 11.3239 9.9037 11.2997 10.0664L13.2777 10.3617C13.2626 10.4632 13.2272 10.5607 13.1738 10.6483L11.4662 9.60708ZM11.2887 10.2142C11.2887 10.5625 11.4142 10.8993 11.6421 11.1627L13.1546 9.85414C13.2411 9.95407 13.2887 10.0818 13.2887 10.2139L11.2887 10.2142ZM11.59 11.097C11.8681 11.479 12.2833 11.7382 12.7485 11.8204L13.0963 9.85085C13.1407 9.85868 13.1803 9.8834 13.2068 9.9198L11.59 11.097ZM12.7855 11.8262C12.8602 11.8365 12.9356 11.8416 13.0111 11.8412L13.0025 9.84125C13.0216 9.84117 13.0406 9.84243 13.0594 9.84504L12.7855 11.8262ZM12.9938 11.8412C13.338 11.8456 13.6753 11.7443 13.96 11.5507L12.8356 9.8967C12.8899 9.8598 12.9542 9.84047 13.0198 9.84132L12.9938 11.8412ZM13.96 11.5507C14.2446 11.3572 14.463 11.0809 14.5855 10.7592L12.7163 10.0476C12.7397 9.9863 12.7813 9.93361 12.8356 9.8967L13.96 11.5507ZM14.6411 10.5432C14.7427 9.82298 14.2262 9.40594 13.988 9.26142C13.7147 9.09566 13.4059 9.01403 13.1558 8.97902L12.8785 10.9597C12.9565 10.9706 12.981 10.9898 12.9507 10.9714C12.9339 10.9612 12.8562 10.9124 12.7817 10.8015C12.6954 10.673 12.63 10.4814 12.6607 10.2637L14.6411 10.5432ZM22.8596 9.83971C22.7561 9.09226 22.0837 8.87435 21.8826 8.82538C21.598 8.75605 21.3022 8.76395 21.0612 8.80092L21.3644 10.7778C21.4289 10.7679 21.4486 10.7781 21.4094 10.7686C21.3902 10.7639 21.2986 10.7406 21.1899 10.6571C21.0653 10.5614 20.9153 10.38 20.8785 10.114L22.8596 9.83971ZM21.0612 8.80092C20.8336 8.83582 20.5547 8.90929 20.3052 9.05062C20.1338 9.14772 19.5368 9.53874 19.641 10.2912L21.6221 10.0169C21.6592 10.2854 21.5622 10.5022 21.4676 10.6279C21.3857 10.7368 21.3048 10.783 21.2909 10.7908C21.2619 10.8072 21.2863 10.7898 21.3644 10.7778L21.0612 8.80092ZM19.7081 10.5378C19.832 10.8359 20.0418 11.0904 20.3109 11.2688L21.416 9.60176C21.478 9.64288 21.5264 9.70154 21.5549 9.77026L19.7081 10.5378ZM20.3109 11.2688C20.58 11.4471 20.8961 11.5413 21.2189 11.5393L21.2066 9.53938C21.2811 9.53893 21.3539 9.56064 21.416 9.60176L20.3109 11.2688ZM21.2146 11.5394C21.2875 11.5392 21.3604 11.534 21.4326 11.5236L21.1485 9.54387C21.1692 9.54091 21.1901 9.5394 21.2109 9.53936L21.2146 11.5394ZM21.4636 11.5187C21.8429 11.452 22.1897 11.2621 22.4501 10.9783L20.9766 9.626C21.0138 9.58546 21.0634 9.55833 21.1176 9.54882L21.4636 11.5187ZM22.3732 11.0536C22.6657 10.7968 22.8442 10.4344 22.8697 10.046L20.874 9.91522C20.8832 9.77475 20.9477 9.64368 21.0535 9.55079L22.3732 11.0536Z" fill="black" mask="url(#path-3-inside-1_332_123)"/>
    <path d="M26.9446 17.7928C26.8312 17.4506 26.4674 17.3409 25.8628 17.4656C24.0674 17.8406 23.4253 17.5791 23.2134 17.4244C24.6351 15.242 25.7023 12.8483 26.3756 10.3322C26.6481 9.33693 26.8054 8.31366 26.8443 7.2825C26.9166 6.56122 26.7488 5.83625 26.3671 5.22C25.6915 4.36963 24.8275 3.68779 23.8434 3.2282C22.8593 2.76861 21.782 2.54383 20.6962 2.57156C19.5809 2.55411 18.4709 2.72885 17.4149 3.08813C16.811 2.9391 16.192 2.85952 15.5699 2.85094C14.4508 2.80176 13.3447 3.10651 12.4087 3.72188C11.5755 3.41725 10.7155 3.19188 9.83995 3.04875C8.16634 2.64374 6.40054 2.91491 4.92557 3.80344C3.51932 4.80094 2.86307 6.58406 2.99339 9.10313C3.23964 11.122 3.67051 13.1141 4.28057 15.0544C5.2837 18.3403 6.37401 20.2012 7.52151 20.5856C7.66985 20.6356 7.82529 20.6612 7.98182 20.6616C8.27312 20.6435 8.55648 20.5593 8.81037 20.4154C9.06427 20.2715 9.28204 20.0716 9.44714 19.8309C10.0984 19.0497 10.7718 18.2878 11.4674 17.5453C11.9146 17.7873 12.4123 17.9212 12.9206 17.9362V17.9756C12.8331 18.0794 12.7478 18.185 12.6646 18.2925C12.3131 18.7378 12.2409 18.8306 11.1103 19.0641C10.7887 19.1306 9.93464 19.3069 9.92245 19.9078C9.90932 20.5641 10.9321 20.8369 11.0474 20.8659C11.4301 20.9643 11.8233 21.0153 12.2184 21.0178C13.0824 21.0338 13.9202 20.7208 14.5621 20.1422C14.4663 21.9263 14.5862 23.7155 14.9193 25.4709C15.0732 26.0329 15.4064 26.5293 15.8682 26.8846C16.33 27.24 16.8951 27.4349 17.4778 27.4397C17.7668 27.4388 18.055 27.4074 18.3374 27.3459C19.1087 27.2793 19.8307 26.9393 20.3733 26.3871C20.9158 25.8349 21.2432 25.107 21.2962 24.3347C21.4621 23.3728 21.7471 21.0769 21.8812 19.845C22.22 19.9381 22.5706 19.9814 22.9218 19.9734C23.7309 19.9793 24.5332 19.8264 25.2834 19.5234C25.9509 19.2131 27.1584 18.4537 26.9362 17.7928H26.9446ZM22.5478 9.46875C22.5357 9.8168 22.4994 10.1636 22.439 10.5066C22.3693 10.9096 22.3255 11.3167 22.3078 11.7253C22.3046 12.1864 22.3359 12.647 22.4015 13.1034C22.604 14.0376 22.5294 15.0105 22.1868 15.9028C22.1141 15.7738 22.0493 15.6404 21.9928 15.5034C21.9384 15.3713 21.8193 15.1584 21.6562 14.865C21.0187 13.7213 19.5243 11.0419 20.2893 9.94875C20.5171 9.62344 21.0956 9.2925 22.5468 9.46875H22.5478ZM20.7881 3.31031C21.7477 3.29069 22.6988 3.49402 23.5665 3.90429C24.4342 4.31456 25.1949 4.92059 25.7887 5.67469C26.7028 6.84188 25.6949 12.1547 22.784 16.7372L22.6959 16.6256L22.6593 16.5797C23.2376 15.4869 23.4059 14.2232 23.1337 13.0172C23.071 12.5976 23.0397 12.1739 23.0399 11.7497C23.0569 11.3706 23.098 10.993 23.1628 10.6191C23.2471 10.1574 23.2857 9.68859 23.2781 9.21937C23.2933 9.15493 23.2975 9.08834 23.2903 9.0225C22.9796 7.76713 22.3639 6.60784 21.4978 5.6475C20.7195 4.73039 19.7461 3.99881 18.6487 3.50625C19.3515 3.35971 20.0684 3.29242 20.7862 3.30563L20.7881 3.31031ZM8.88651 19.3631C8.2987 20.07 7.89182 19.935 7.76151 19.89C6.89151 19.5994 5.88089 17.76 4.9912 14.8425C4.40046 12.9593 3.98002 11.0268 3.73495 9.06844C3.62245 6.81844 4.16807 5.24906 5.35682 4.40531C7.29089 3.03375 10.4718 3.855 11.7496 4.27125C11.7309 4.28906 11.7121 4.30594 11.6943 4.32469C9.59714 6.4425 9.64682 10.0613 9.65245 10.2825C9.65245 10.3678 9.65901 10.4888 9.66932 10.6575C9.7462 11.6656 9.72076 12.6789 9.59339 13.6819C9.50623 14.2562 9.55101 14.8427 9.72433 15.3971C9.89765 15.9515 10.195 16.4592 10.5937 16.8816C10.6768 16.9678 10.7637 17.0497 10.8543 17.1272C10.4953 17.5116 9.71432 18.3628 8.88557 19.3631H8.88651ZM11.1271 16.3725C10.8038 16.0307 10.5627 15.6196 10.4222 15.1706C10.2817 14.7216 10.2454 14.2464 10.3162 13.7813C10.4506 12.7302 10.4779 11.6682 10.3978 10.6116C10.3921 10.5225 10.3874 10.4447 10.3846 10.3838C11.17 9.79187 12.1445 9.50746 13.1249 9.58406C13.3505 9.63518 13.5546 9.75526 13.7088 9.92763C13.863 10.1 13.9598 10.3161 13.9856 10.5459C14.5912 13.3481 14.0653 14.5153 13.6434 15.4537C13.5562 15.6469 13.4737 15.8287 13.4043 16.0162L13.3499 16.1625C13.2152 16.5022 13.1 16.8493 13.0049 17.2022C12.6525 17.1972 12.3047 17.1209 11.9825 16.978C11.6602 16.8351 11.3703 16.6285 11.1299 16.3706L11.1271 16.3725ZM11.2331 20.1506C11.0591 20.1078 10.8935 20.0365 10.7428 19.9397C10.9103 19.8681 11.0855 19.8159 11.2649 19.7841C12.5943 19.5103 12.7996 19.3153 13.2487 18.7481C13.3518 18.6178 13.4681 18.4669 13.6293 18.2897C13.8693 18.0206 13.9799 18.0666 14.1787 18.1491C14.273 18.2003 14.3556 18.2704 14.4215 18.3551C14.4873 18.4398 14.5349 18.5373 14.5612 18.6413C14.5874 18.7168 14.5968 18.7971 14.5887 18.8766C14.5806 18.9561 14.5552 19.0329 14.5143 19.1016C14.1509 19.6034 13.6366 19.976 13.0465 20.1649C12.4563 20.3537 11.8213 20.3491 11.234 20.1516L11.2331 20.1506ZM18.1931 26.625C17.93 26.7165 17.6505 26.7514 17.373 26.7276C17.0955 26.7037 16.8261 26.6216 16.5824 26.4866C16.3388 26.3516 16.1264 26.1668 15.959 25.9441C15.7916 25.7214 15.6731 25.466 15.6112 25.1944C15.2811 23.0697 15.1867 20.9151 15.3299 18.7697C15.3309 18.7303 15.3255 18.6911 15.314 18.6534C15.3042 18.5806 15.2891 18.5085 15.269 18.4378C15.2135 18.2269 15.1123 18.0308 14.9727 17.8633C14.833 17.6958 14.6583 17.561 14.4609 17.4684C14.2307 17.3543 13.9687 17.3213 13.7174 17.3747C13.8063 17.0496 13.9133 16.7297 14.0381 16.4166L14.0924 16.2694C14.1543 16.1034 14.2312 15.9319 14.3128 15.75C14.7543 14.7684 15.3599 13.4231 14.7028 10.3856C14.6612 10.1272 14.5671 9.88013 14.4263 9.6595C14.2856 9.43888 14.1011 9.24942 13.8843 9.10282C13.6675 8.95622 13.423 8.85557 13.1658 8.80709C12.9087 8.75861 12.6443 8.76332 12.389 8.82094C11.7715 8.90104 11.1728 9.08855 10.6199 9.375C10.5468 9.4125 10.4793 9.44813 10.4174 9.48281C10.4884 7.77934 11.1205 6.14712 12.2156 4.84031C12.6554 4.40989 13.1803 4.07613 13.7567 3.86044C14.333 3.64475 14.9481 3.55189 15.5624 3.58781C16.6003 3.59682 17.6235 3.83346 18.56 4.28102C19.4964 4.72859 20.3233 5.37619 20.9821 6.17813C21.6252 6.929 22.1276 7.78963 22.4653 8.71875C21.0937 8.57906 20.1609 8.85 19.6884 9.52594C18.6571 10.9959 20.2509 13.8497 21.0159 15.2213C21.1565 15.4725 21.2774 15.69 21.3149 15.7838C21.517 16.2554 21.7891 16.6938 22.1221 17.0841C22.1943 17.1778 22.2646 17.2612 22.3171 17.3381C21.9018 17.4581 21.1556 17.7347 21.224 19.1194C21.1696 19.8131 20.7796 23.0616 20.5809 24.21C20.3193 25.7259 19.7615 26.2912 18.1921 26.6278L18.1931 26.625ZM24.9824 18.855C24.4053 19.084 23.7927 19.2109 23.1721 19.23C22.7592 19.2908 22.3375 19.2366 21.9534 19.0734C21.9112 18.2119 22.2346 18.1219 22.5721 18.0263C22.6256 18.0113 22.6771 17.9962 22.7278 17.9794C22.7609 18.0061 22.7953 18.0311 22.8309 18.0544C23.4299 18.45 24.4996 18.4922 26.009 18.1809H26.0259C25.7139 18.4584 25.361 18.686 24.9796 18.8559L24.9824 18.855Z" fill="black"/>
</svg>
