<svg width="35" height="35" viewBox="0 0 809 845" fill="none" xmlns="http://www.w3.org/2000/svg">
<path d="M466.973 344.398C466.973 308.538 436.99 279.463 400 279.463C363.015 279.463 333.028 308.538 333.028 344.398C333.028 380.263 363.015 409.335 400 409.335C436.99 409.335 466.973 380.263 466.973 344.398Z" fill="#53C1DE"/>
<path fill-rule="evenodd" clip-rule="evenodd" d="M617.51 223.843C631.652 168.12 649.43 64.787 586.76 29.754C524.382 -5.12625 443.21 61.7107 400.348 101.83C357.61 62.1105 274.157 -4.44075 211.541 30.7035C149.188 65.7007 168.416 167.32 182.872 223.393C124.708 239.41 25 273.91 25 344.397C25 414.685 124.604 452.22 182.424 468.222C167.914 524.605 149.649 624.772 212.082 659.692C274.932 694.83 358.125 629.862 401.385 589.305C444.523 629.66 524.915 695.052 587.305 660.035C649.89 624.907 633.59 522.96 619.133 466.562C675.183 450.525 775 413.808 775 344.397C775 274.588 674.757 239.808 617.51 223.843ZM610.405 436.675C600.913 407.54 588.1 376.557 572.428 344.552C587.388 313.302 599.703 282.72 608.93 253.772C650.898 265.57 742.963 292.532 742.963 344.397C742.963 396.75 654.615 423.967 610.405 436.675ZM571.25 633.15C524.7 659.275 455.552 596.74 423.695 567.022C444.83 544.61 465.95 518.555 486.562 489.622C522.822 486.505 557.075 481.405 588.14 474.442C598.315 514.335 618.005 606.907 571.25 633.15ZM228.091 632.778C181.536 606.75 202.814 517.365 213.489 475.832C244.208 482.422 278.215 487.162 314.56 490.02C335.308 518.33 357.04 544.352 378.94 567.142C351.883 592.52 274.863 658.925 228.091 632.778ZM57.0373 344.397C57.0373 291.85 148.552 265.082 191.476 253.315C200.863 282.912 213.174 313.86 228.031 345.155C212.981 376.915 200.494 408.352 191.021 438.3C150.092 426.94 57.0373 396.977 57.0373 344.397ZM227.592 57.5885C274.337 31.354 346.868 95.2457 377.898 124.003C356.11 146.688 334.577 172.515 314.007 200.662C278.735 203.832 244.969 208.923 213.927 215.743C202.281 170.518 180.898 83.7948 227.592 57.5885ZM509.482 234.428C533.412 237.355 556.34 241.25 577.868 246.015C571.405 266.1 563.35 287.102 553.862 308.632C540.11 283.332 525.347 258.54 509.482 234.428ZM400.357 146.203C415.135 161.724 429.935 179.057 444.495 197.862C414.963 196.507 385.383 196.502 355.85 197.842C370.423 179.212 385.35 161.905 400.357 146.203ZM246.412 308.61C237.082 287.155 229.1 266.06 222.581 245.688C243.98 241.045 266.8 237.25 290.575 234.37C274.665 258.43 259.927 283.213 246.412 308.61ZM291.258 456.642C266.698 453.985 243.532 450.382 222.139 445.867C228.761 425.137 236.919 403.588 246.449 381.67C260.15 407.333 275.113 432.355 291.258 456.642ZM401.245 544.788C386.06 528.9 370.912 511.327 356.12 492.427C385.82 493.557 415.578 493.56 445.275 492.275C430.67 511.52 415.923 529.118 401.245 544.788ZM554.168 380.555C564.193 402.71 572.643 424.142 579.355 444.522C557.608 449.335 534.13 453.21 509.392 456.087C525.375 431.517 540.373 406.34 554.168 380.555ZM468.682 459.853C423.252 463 377.54 462.965 332.095 460.11C306.273 423.537 283.285 385.075 263.442 345.145C283.19 305.298 306.01 266.91 331.71 230.395C377.188 227.063 422.945 227.053 468.423 230.415C493.903 266.928 516.688 305.215 536.893 344.703C516.928 384.53 493.987 422.995 468.682 459.853ZM570.757 56.665C617.515 82.8135 596.702 175.681 586.487 216.065C555.372 209.102 521.582 203.922 486.207 200.702C465.597 172.251 444.245 146.379 422.81 123.987C454.237 94.6102 524.452 30.7722 570.757 56.665Z" fill="#53C1DE"/>
<path d="M243.249 705.091V812H230.721L172.463 728.06H171.419V812H158.473V705.091H171.002L229.468 789.24H230.512V705.091H243.249ZM273.539 812H259.967L299.222 705.091H312.586L351.842 812H338.269L306.322 722.004H305.486L273.539 812ZM278.55 770.239H333.258V781.723H278.55V770.239ZM350.158 716.575V705.091H430.34V716.575H396.722V812H383.776V716.575H350.158ZM463.266 705.091V812H450.32V705.091H463.266ZM493.608 705.091L525.347 795.087H526.6L558.338 705.091H571.911L532.655 812H519.292L480.036 705.091H493.608ZM588.563 812V705.091H653.085V716.575H601.509V752.699H649.744V764.183H601.509V800.516H653.92V812H588.563Z" fill="#53C1DE"/>
</svg>
