<svg width="35" height="35" viewBox="0 0 30 30" fill="none" xmlns="http://www.w3.org/2000/svg">
    <g clip-path="url(#clip0_332_101)">
    <path d="M15.0001 5C12.9482 5 11.1841 5.55382 9.79932 6.74074C8.42454 7.91912 7.52518 9.63458 7.02628 11.7728C6.91738 12.2394 7.15484 12.7177 7.59238 12.9131C8.02992 13.1085 8.54456 12.966 8.81934 12.5734C9.4526 11.6688 10.0849 11.1252 10.6924 10.8463C11.2808 10.5761 11.915 10.5214 12.6414 10.7159C13.3745 10.9123 13.9419 11.4874 14.8329 12.4563L14.8616 12.4876C15.5332 13.2181 16.3525 14.1092 17.473 14.8006C18.6357 15.518 20.0826 16 22.0002 16C24.052 16 25.8162 15.4461 27.201 14.2592C28.5756 13.0809 29.475 11.3654 29.974 9.22722C30.0828 8.76058 29.8454 8.28228 29.4078 8.0869C28.9704 7.89152 28.4556 8.03396 28.1808 8.42652C27.5476 9.33118 26.9154 9.87474 26.3078 10.1537C25.7194 10.4239 25.0852 10.4786 24.3588 10.284C23.6258 10.0877 23.0582 9.5126 22.1674 8.54364L22.1386 8.51232C21.467 7.78186 20.6478 6.89076 19.5272 6.19942C18.3645 5.48202 16.9177 5 15.0001 5Z" fill="white"/>
    <path d="M8.00012 14C5.94818 14 4.18406 14.5538 2.79932 15.7407C1.42454 16.9191 0.525184 18.6345 0.026273 20.7728C-0.0826114 21.2394 0.154832 21.7176 0.592372 21.913C1.02991 22.1084 1.54455 21.966 1.81935 21.5734C2.4526 20.6688 3.08488 20.1252 3.6924 19.8462C4.28076 19.5761 4.91494 19.5213 5.64138 19.7159C6.37446 19.9123 6.94194 20.4874 7.83286 21.4564L7.86164 21.4876C8.5332 22.218 9.35248 23.1092 10.473 23.8006C11.6357 24.518 13.0826 25 15.0001 25C17.052 25 18.8162 24.4462 20.201 23.2592C21.5756 22.0808 22.475 20.3654 22.974 18.2272C23.0828 17.7605 22.8454 17.2823 22.4078 17.0869C21.9704 16.8915 21.4556 17.0339 21.1808 17.4265C20.5476 18.3311 19.9154 18.8747 19.3078 19.1537C18.7195 19.4238 18.0853 19.4786 17.3588 19.284C16.6258 19.0876 16.0583 18.5125 15.1674 17.5436L15.1386 17.5123C14.467 16.7818 13.6478 15.8907 12.5272 15.1994C11.3645 14.482 9.91766 14 8.00012 14Z" fill="white"/>
    </g>
    <defs>
    <clipPath id="clip0_332_101">
    <rect width="30" height="30" fill="white"/>
    </clipPath>
    </defs>
</svg>
