<svg width="35" height="35" viewBox="0 0 140 137" fill="none" xmlns="http://www.w3.org/2000/svg">
    <path d="M102.492 43.3281C107.881 43.3394 111.236 49.1797 108.532 53.8407L77.2425 107.775C74.5384 112.436 67.8027 112.422 65.1181 107.75L34.0542 53.685C31.3696 49.0127 34.7497 43.1865 40.1383 43.1977L102.492 43.3281Z" fill="#F71963"/>
    <path d="M68.5386 61.6061C73.8101 61.7159 77.0723 67.3937 74.5124 72.0032L55.9337 105.456C53.2891 110.218 46.4583 110.268 43.7446 105.545L24.0658 71.295C21.3521 66.572 24.8352 60.6957 30.281 60.8092L68.5386 61.6061Z" fill="#F71963"/>
    <path d="M72.1479 60.6586C75.9969 60.6667 78.3938 64.8383 76.4623 68.1677L63.4249 90.6404C61.4934 93.9697 56.6822 93.9597 54.7647 90.6223L41.8214 68.0952C39.9038 64.7579 42.3182 60.5963 46.1672 60.6043L72.1479 60.6586Z" fill="white"/>
</svg>
